<svg width="30" height="30" viewBox="0 0 30 30" fill="none" xmlns="http://www.w3.org/2000/svg">
<rect width="30" height="30" rx="10" fill="#D9D9D9"/>
<path d="M10.8571 8C9.83281 8 9 8.83281 9 9.85714V19.1429C9 20.1672 9.83281 21 10.8571 21H20.1429C21.1672 21 22 20.1672 22 19.1429V12.1002C22 11.6069 21.8056 11.1339 21.4574 10.7857L19.2143 8.54263C18.8661 8.19442 18.3931 8 17.8998 8H10.8571ZM10.8571 10.7857C10.8571 10.2721 11.2721 9.85714 11.7857 9.85714H17.3571C17.8708 9.85714 18.2857 10.2721 18.2857 10.7857V12.6429C18.2857 13.1565 17.8708 13.5714 17.3571 13.5714H11.7857C11.2721 13.5714 10.8571 13.1565 10.8571 12.6429V10.7857ZM15.5 15.4286C15.9925 15.4286 16.4649 15.6242 16.8132 15.9725C17.1615 16.3208 17.3571 16.7932 17.3571 17.2857C17.3571 17.7783 17.1615 18.2506 16.8132 18.5989C16.4649 18.9472 15.9925 19.1429 15.5 19.1429C15.0075 19.1429 14.5351 18.9472 14.1868 18.5989C13.8385 18.2506 13.6429 17.7783 13.6429 17.2857C13.6429 16.7932 13.8385 16.3208 14.1868 15.9725C14.5351 15.6242 15.0075 15.4286 15.5 15.4286Z" fill="#0E0E27"/>
</svg>
