<svg width="30" height="30" viewBox="0 0 30 30" fill="none" xmlns="http://www.w3.org/2000/svg">
<rect width="30" height="30" rx="10" fill="#D9D9D9"/>
<path d="M15.4839 9.48234L9.48234 15.4839C8.83922 16.127 8.83922 17.1689 9.48234 17.812L11.5403 19.87C11.849 20.1787 12.2683 20.351 12.7056 20.351H15.4145H15.6563H21.1768C21.6321 20.351 22 19.9832 22 19.5279C22 19.0725 21.6321 18.7047 21.1768 18.7047H17.9844L21.3466 15.345C21.9897 14.7019 21.9897 13.66 21.3466 13.0169L17.8146 9.48234C17.1715 8.83922 16.1296 8.83922 15.4865 9.48234H15.4839ZM15.6563 18.7072H15.4145H12.7031L10.6451 16.6493L13.853 13.4414L17.3876 16.976L15.6563 18.7072Z" fill="#0E0E27"/>
</svg>
