<svg width="30" height="30" viewBox="0 0 30 30" fill="none" xmlns="http://www.w3.org/2000/svg">
<rect width="30" height="30" rx="10" fill="#D9D9D9"/>
<path d="M10.7857 8C9.24777 8 8 9.24777 8 10.7857V20.0714C8 21.6094 9.24777 22.8571 10.7857 22.8571H19.1429H20.0714C20.585 22.8571 21 22.4422 21 21.9286C21 21.415 20.585 21 20.0714 21V19.1429C20.585 19.1429 21 18.7279 21 18.2143V8.92857C21 8.41496 20.585 8 20.0714 8H19.1429H10.7857ZM10.7857 19.1429H18.2143V21H10.7857C10.2721 21 9.85714 20.585 9.85714 20.0714C9.85714 19.5578 10.2721 19.1429 10.7857 19.1429ZM11.7143 12.1786C11.7143 11.9232 11.9232 11.7143 12.1786 11.7143H17.75C18.0054 11.7143 18.2143 11.9232 18.2143 12.1786C18.2143 12.4339 18.0054 12.6429 17.75 12.6429H12.1786C11.9232 12.6429 11.7143 12.4339 11.7143 12.1786ZM12.1786 13.5714H17.75C18.0054 13.5714 18.2143 13.7804 18.2143 14.0357C18.2143 14.2911 18.0054 14.5 17.75 14.5H12.1786C11.9232 14.5 11.7143 14.2911 11.7143 14.0357C11.7143 13.7804 11.9232 13.5714 12.1786 13.5714Z" fill="#0E0E27"/>
</svg>
