<?xml version="1.0" encoding="UTF-8"?>
<svg xmlns="http://www.w3.org/2000/svg" xmlns:xlink="http://www.w3.org/1999/xlink" width="10px" height="10px" viewBox="0 0 10 10" version="1.1">
<g id="surface1">
<path style=" stroke:none;fill-rule:nonzero;fill:rgb(0%,0%,0%);fill-opacity:1;" d="M 5.734375 5 L 9.53125 1.203125 C 9.617188 1.101562 9.660156 0.976562 9.65625 0.84375 C 9.652344 0.714844 9.597656 0.589844 9.503906 0.496094 C 9.410156 0.402344 9.285156 0.347656 9.15625 0.34375 C 9.023438 0.339844 8.898438 0.382812 8.796875 0.46875 L 5 4.265625 L 1.203125 0.464844 C 1.105469 0.378906 0.976562 0.332031 0.84375 0.339844 C 0.714844 0.34375 0.589844 0.398438 0.496094 0.492188 C 0.402344 0.582031 0.347656 0.707031 0.34375 0.839844 C 0.339844 0.96875 0.382812 1.097656 0.46875 1.199219 L 4.265625 5 L 0.464844 8.796875 C 0.410156 8.84375 0.363281 8.902344 0.332031 8.964844 C 0.300781 9.03125 0.285156 9.101562 0.28125 9.171875 C 0.277344 9.242188 0.292969 9.316406 0.316406 9.382812 C 0.34375 9.449219 0.382812 9.511719 0.433594 9.5625 C 0.484375 9.613281 0.546875 9.652344 0.613281 9.675781 C 0.679688 9.703125 0.75 9.714844 0.824219 9.714844 C 0.894531 9.710938 0.964844 9.691406 1.027344 9.660156 C 1.09375 9.628906 1.152344 9.585938 1.199219 9.53125 L 5 5.734375 L 8.796875 9.53125 C 8.898438 9.617188 9.023438 9.660156 9.15625 9.65625 C 9.285156 9.652344 9.410156 9.597656 9.503906 9.503906 C 9.597656 9.410156 9.652344 9.285156 9.65625 9.15625 C 9.660156 9.023438 9.617188 8.898438 9.53125 8.796875 Z M 5.734375 5 "/>
</g>
</svg>
