<svg width="15" height="18" viewBox="0 0 15 15" fill="none" xmlns="http://www.w3.org/2000/svg">
<path d="M7.5 1.875C4.39453 1.875 1.875 4.39453 1.875 7.5C1.875 10.6055 4.39453 13.125 7.5 13.125C8.01855 13.125 8.4375 13.5439 8.4375 14.0625C8.4375 14.5811 8.01855 15 7.5 15C3.35742 15 0 11.6426 0 7.5C0 3.35742 3.35742 0 7.5 0C11.6426 0 15 3.35742 15 7.5V8.4375C15 9.99023 13.7402 11.25 12.1875 11.25C11.3291 11.25 10.5586 10.8633 10.043 10.2568C9.375 10.8721 8.48145 11.25 7.5 11.25C5.42871 11.25 3.75 9.57129 3.75 7.5C3.75 5.42871 5.42871 3.75 7.5 3.75C8.31738 3.75 9.07324 4.01074 9.68848 4.45605C9.85547 4.30957 10.0723 4.21875 10.3125 4.21875C10.8311 4.21875 11.25 4.6377 11.25 5.15625V7.5V8.4375C11.25 8.95605 11.6689 9.375 12.1875 9.375C12.7061 9.375 13.125 8.95605 13.125 8.4375V7.5C13.125 4.39453 10.6055 1.875 7.5 1.875ZM9.375 7.5C9.375 7.00272 9.17746 6.52581 8.82582 6.17417C8.47419 5.82254 7.99728 5.625 7.5 5.625C7.00272 5.625 6.52581 5.82254 6.17417 6.17417C5.82254 6.52581 5.625 7.00272 5.625 7.5C5.625 7.99728 5.82254 8.47419 6.17417 8.82582C6.52581 9.17746 7.00272 9.375 7.5 9.375C7.99728 9.375 8.47419 9.17746 8.82582 8.82582C9.17746 8.47419 9.375 7.99728 9.375 7.5Z" fill="#0E0E27"/>
</svg>
