<svg xmlns="http://www.w3.org/2000/svg" width="50" height="50" viewBox="0 0 150 150" version="1.1"><path d="M 52 26 C 52 26.733, 52.300 27.033, 52.667 26.667 C 53.033 26.300, 53.033 25.700, 52.667 25.333 C 52.300 24.967, 52 25.267, 52 26 M 98.333 28.667 C 98.700 29.033, 99.300 29.033, 99.667 28.667 C 100.033 28.300, 99.733 28, 99 28 C 98.267 28, 97.967 28.300, 98.333 28.667 M 102 35 C 102 35.733, 102.300 36.033, 102.667 35.667 C 103.033 35.300, 103.033 34.700, 102.667 34.333 C 102.300 33.967, 102 34.267, 102 35 M 47 58 C 47 58.733, 47.300 59.033, 47.667 58.667 C 48.033 58.300, 48.033 57.700, 47.667 57.333 C 47.300 56.967, 47 57.267, 47 58 M 107 66 C 107 66.733, 107.300 67.033, 107.667 66.667 C 108.033 66.300, 108.033 65.700, 107.667 65.333 C 107.300 64.967, 107 65.267, 107 66 M 76.333 101.667 C 76.700 102.033, 77.300 102.033, 77.667 101.667 C 78.033 101.300, 77.733 101, 77 101 C 76.267 101, 75.967 101.300, 76.333 101.667 M 9.400 121.500 C 9.401 129.750, 9.556 132.992, 9.744 128.704 C 9.932 124.417, 9.931 117.667, 9.742 113.704 C 9.552 109.742, 9.399 113.250, 9.400 121.500 M 26.158 109 C 26.158 110.375, 26.385 110.938, 26.662 110.250 C 26.940 109.563, 26.940 108.438, 26.662 107.750 C 26.385 107.063, 26.158 107.625, 26.158 109 M 73.286 111.500 C 73.294 114.250, 73.488 115.256, 73.718 113.736 C 73.947 112.216, 73.941 109.966, 73.704 108.736 C 73.467 107.506, 73.279 108.750, 73.286 111.500 M 13.402 115.243 L 13.500 119.500 19.255 119.582 L 25.010 119.664 19.560 119.284 L 14.110 118.903 13.707 114.944 L 13.304 110.985 13.402 115.243 M 36.370 126 C 36.370 131.775, 36.535 134.137, 36.737 131.250 C 36.939 128.363, 36.939 123.638, 36.737 120.750 C 36.535 117.862, 36.370 120.225, 36.370 126 M 40 117 C 40 117.733, 40.300 118.033, 40.667 117.667 C 41.033 117.300, 41.033 116.700, 40.667 116.333 C 40.300 115.967, 40 116.267, 40 117 M 110.079 121.583 C 110.127 122.748, 110.364 122.985, 110.683 122.188 C 110.972 121.466, 110.936 120.603, 110.604 120.271 C 110.272 119.939, 110.036 120.529, 110.079 121.583 M 108.343 128.500 C 108.346 132.900, 108.522 134.576, 108.733 132.224 C 108.945 129.872, 108.942 126.272, 108.727 124.224 C 108.512 122.176, 108.339 124.100, 108.343 128.500 M 98.750 122.662 C 99.438 122.940, 100.563 122.940, 101.250 122.662 C 101.938 122.385, 101.375 122.158, 100 122.158 C 98.625 122.158, 98.063 122.385, 98.750 122.662 M 16.768 123.725 C 18.565 123.947, 21.265 123.943, 22.768 123.715 C 24.271 123.486, 22.800 123.304, 19.500 123.310 C 16.200 123.315, 14.971 123.502, 16.768 123.725 M 47.079 125.583 C 47.127 126.748, 47.364 126.985, 47.683 126.188 C 47.972 125.466, 47.936 124.603, 47.604 124.271 C 47.272 123.939, 47.036 124.529, 47.079 125.583 M 127 126 C 127 126.733, 127.300 127.033, 127.667 126.667 C 128.033 126.300, 128.033 125.700, 127.667 125.333 C 127.300 124.967, 127 125.267, 127 126 M 55.250 126.728 C 57.313 126.944, 60.688 126.944, 62.750 126.728 C 64.813 126.513, 63.125 126.336, 59 126.336 C 54.875 126.336, 53.188 126.513, 55.250 126.728 M 135.776 126.733 C 138.128 126.945, 141.728 126.942, 143.776 126.727 C 145.824 126.512, 143.900 126.339, 139.500 126.343 C 135.100 126.346, 133.424 126.522, 135.776 126.733 M 126 130 C 126 130.733, 126.300 131.033, 126.667 130.667 C 127.033 130.300, 127.033 129.700, 126.667 129.333 C 126.300 128.967, 126 129.267, 126 130 M 78.333 132.667 C 78.700 133.033, 79.300 133.033, 79.667 132.667 C 80.033 132.300, 79.733 132, 79 132 C 78.267 132, 77.967 132.300, 78.333 132.667 M 98.333 132.667 C 98.700 133.033, 99.300 133.033, 99.667 132.667 C 100.033 132.300, 99.733 132, 99 132 C 98.267 132, 97.967 132.300, 98.333 132.667 M 117.813 132.683 C 118.534 132.972, 119.397 132.936, 119.729 132.604 C 120.061 132.272, 119.471 132.036, 118.417 132.079 C 117.252 132.127, 117.015 132.364, 117.813 132.683 M 137.333 132.667 C 137.700 133.033, 138.300 133.033, 138.667 132.667 C 139.033 132.300, 138.733 132, 138 132 C 137.267 132, 136.967 132.300, 137.333 132.667 M 104 135 C 104 135.733, 104.300 136.033, 104.667 135.667 C 105.033 135.300, 105.033 134.700, 104.667 134.333 C 104.300 133.967, 104 134.267, 104 135" stroke="none" fill="#f88424" fill-rule="evenodd"/><path d="M 54.154 16.250 C 52.883 23.652, 51.267 33.919, 50.495 39.500 C 50.191 41.700, 49.753 44.400, 49.522 45.500 C 48.426 50.727, 46.047 68.381, 46.392 68.726 C 46.607 68.940, 49.309 64.477, 52.396 58.808 C 55.483 53.139, 60.431 44.225, 63.391 39 L 68.772 29.500 63.636 19.765 C 57.367 7.884, 55.696 7.264, 54.154 16.250 M 68.019 36.230 C 52.876 63.092, 45.045 77.378, 45.315 77.648 C 45.468 77.801, 54.663 68.830, 65.749 57.713 L 85.905 37.500 82.203 30.501 C 80.166 26.652, 77.825 23.380, 77 23.231 C 76.002 23.051, 72.995 27.404, 68.019 36.230 M 70.621 55.859 C 55.837 70.662, 44.028 83.236, 44.379 83.804 C 44.729 84.371, 48.275 86.609, 52.258 88.777 C 56.241 90.946, 62.200 94.194, 65.500 95.995 C 68.800 97.795, 71.928 99.658, 72.450 100.134 C 74.887 102.355, 79.957 100.647, 93.911 92.903 C 101.935 88.450, 108.873 84.455, 109.329 84.024 C 110.168 83.232, 108.800 73.187, 104.015 45 C 101.722 31.494, 101.133 29.464, 99.442 29.223 C 98.055 29.026, 89.812 36.645, 70.621 55.859 M 28.993 107.508 C 28.324 108.315, 28.037 109.655, 28.357 110.487 C 29.121 112.480, 32.620 112.432, 33.393 110.418 C 34.237 108.219, 34.227 108.192, 32.105 107.056 C 30.700 106.304, 29.895 106.421, 28.993 107.508 M 10 121.573 C 10 134.913, 10.148 136.118, 11.750 135.813 C 13.154 135.546, 13.559 134.246, 13.798 129.240 L 14.095 123 19.548 123 C 23.644 123, 25 122.639, 25 121.550 C 25 120.486, 23.469 120.020, 19.250 119.800 L 13.500 119.500 13.193 115.250 L 12.885 111 19.443 111 C 25.333 111, 26 110.797, 26 109 C 26 107.167, 25.333 107, 18 107 L 10 107 10 121.573 M 69 121.031 C 69 132.974, 69.238 135.154, 70.601 135.677 C 71.481 136.015, 72.506 135.800, 72.877 135.199 C 73.314 134.493, 74.075 134.436, 75.026 135.037 C 78.102 136.982, 83.049 136.105, 86.077 133.077 C 88.474 130.680, 89 129.313, 89 125.478 C 89 121.537, 88.512 120.347, 85.894 117.901 C 82.413 114.649, 78.627 114.172, 75.223 116.557 C 73.006 118.109, 73 118.099, 73 112.557 C 73 107.667, 72.760 107, 71 107 C 69.095 107, 69 107.667, 69 121.031 M 42.750 116.447 C 41.237 117.236, 40 117.458, 40 116.941 C 40 116.423, 39.325 116, 38.500 116 C 37.266 116, 37 117.786, 37 126.073 C 37 135.127, 37.177 136.113, 38.750 135.813 C 40.179 135.540, 40.555 134.213, 40.800 128.564 C 41.103 121.560, 42.792 118.455, 45.735 119.491 C 46.802 119.867, 49 117.224, 49 115.566 C 49 114.513, 45.516 115.004, 42.750 116.447 M 51.555 117.199 C 47.743 120.478, 46.740 126.251, 49.134 131.127 C 51.141 135.214, 52.554 136, 57.893 136 C 62.983 136, 68.398 131.036, 64.750 129.714 C 64.063 129.465, 62.727 129.934, 61.783 130.755 C 58.286 133.800, 52 131.900, 52 127.799 C 52 126.001, 52.610 125.869, 59.502 126.171 L 67.005 126.500 67.002 123.806 C 66.996 116.740, 57.039 112.482, 51.555 117.199 M 94.223 116.557 C 93 117.413, 92 118.715, 92 119.450 C 92 121.438, 94.678 122.093, 96.049 120.441 C 97.753 118.388, 101.382 118.660, 103.500 121 C 105.287 122.974, 105.247 123, 100.377 123 C 93.926 123, 91 125.028, 91 129.500 C 91 134.922, 97.578 137.902, 103.066 134.965 C 104.399 134.251, 105 134.251, 105 134.965 C 105 135.534, 105.675 136, 106.500 136 C 107.715 136, 108 134.397, 108 127.573 C 108 119.659, 107.839 119.019, 105.365 117.073 C 102.241 114.615, 97.319 114.387, 94.223 116.557 M 113.223 116.557 C 110.188 118.682, 110.231 123.450, 113.302 125.462 C 114.569 126.292, 117.044 127.259, 118.802 127.610 C 123.505 128.551, 122.776 133, 117.918 133 C 117.413 133, 116.110 132.110, 115.023 131.023 C 113.227 129.227, 110 129.169, 110 130.933 C 110 132.293, 114.503 135.821, 116.500 136.026 C 122.878 136.678, 126 134.725, 126 130.084 C 126 126.599, 123.585 124.448, 118.688 123.570 C 115.838 123.059, 114.957 122.458, 115.198 121.193 C 115.591 119.129, 119.575 118.402, 121.542 120.035 C 123.344 121.530, 126.147 120.548, 125.428 118.673 C 124.115 115.251, 116.878 113.996, 113.223 116.557 M 130.923 117.923 C 128.659 120.187, 128 121.755, 128 124.876 C 128 132.448, 131.297 136, 138.325 136 C 141.917 136, 146 133.620, 146 131.527 C 146 129.308, 143.684 129.188, 140.870 131.261 C 138.629 132.912, 137.889 133.014, 135.870 131.950 C 133.222 130.554, 132.038 129.111, 132.015 127.250 C 132.004 126.360, 134.158 126, 139.500 126 C 146.893 126, 147 125.963, 147 123.423 C 147 121.908, 145.795 119.641, 144.077 117.923 C 140.043 113.889, 134.957 113.889, 130.923 117.923 M 29 126 C 29 135.333, 29.133 136, 31 136 C 32.867 136, 33 135.333, 33 126 C 33 116.667, 32.867 116, 31 116 C 29.133 116, 29 116.667, 29 126 M 53.500 121 C 51.710 122.978, 51.753 123, 57.500 123 C 63.247 123, 63.290 122.978, 61.500 121 C 60.505 119.900, 58.705 119, 57.500 119 C 56.295 119, 54.495 119.900, 53.500 121 M 74.557 121.223 C 72.304 124.439, 72.640 127.731, 75.517 130.608 C 79.616 134.707, 84.903 131.797, 84.968 125.405 C 85.029 119.532, 77.780 116.620, 74.557 121.223 M 133.500 121 C 131.712 122.975, 131.753 123, 136.845 123 C 140.585 123, 142 122.618, 142 121.607 C 142 118.553, 136.096 118.132, 133.500 121 M 96.750 127.080 C 92.808 129.376, 96.925 134.181, 100.977 132.012 C 103.963 130.414, 105.337 127.343, 103.400 126.600 C 101.150 125.737, 98.760 125.909, 96.750 127.080" stroke="none" fill="#f48424" fill-rule="evenodd"/></svg>