<svg width="70" height="23" viewBox="0 0 70 23" fill="none" xmlns="http://www.w3.org/2000/svg">
<path d="M5.32996 7.05994V5.01221H10.0297V9.20837C9.13001 9.82156 8.33332 10.2401 7.63951 10.4639C6.95026 10.6832 6.13114 10.7929 5.18225 10.7929C4.01404 10.7929 3.06067 10.5937 2.32214 10.1953C1.58809 9.79694 1.01742 9.20388 0.610107 8.41613C0.207275 7.62838 0.00585938 6.72425 0.00585938 5.70374C0.00585938 4.62952 0.227417 3.69629 0.670531 2.90405C1.11365 2.10734 1.76266 1.50309 2.61756 1.09131C3.28446 0.773519 4.18189 0.614624 5.30981 0.614624C6.39744 0.614624 7.20982 0.713094 7.74694 0.910032C8.28851 1.10698 8.73613 1.41358 9.08969 1.82983C9.44782 2.24162 9.71632 2.7653 9.89538 3.40088L6.96144 3.92456C6.84057 3.55306 6.63469 3.26884 6.34376 3.0719C6.05729 2.87496 5.69027 2.77649 5.24267 2.77649C4.57576 2.77649 4.04313 3.00924 3.64477 3.47473C3.25089 3.93575 3.05396 4.66756 3.05396 5.67017C3.05396 6.73544 3.25313 7.49631 3.65149 7.95288C4.05432 8.40944 4.61381 8.63769 5.32996 8.63769C5.67013 8.63769 5.99463 8.58844 6.30344 8.49C6.61232 8.3915 6.96588 8.22369 7.36426 7.98644V7.05994H5.32996ZM11.6813 3.49488H14.2393V4.66309C14.4854 4.15731 14.7383 3.81043 14.9979 3.62244C15.262 3.42998 15.5865 3.33374 15.9714 3.33374C16.3743 3.33374 16.8151 3.45907 17.2941 3.70972L16.4481 5.65674C16.1259 5.52246 15.8708 5.45533 15.6828 5.45533C15.3247 5.45533 15.0471 5.60302 14.8502 5.89844C14.5683 6.31469 14.4273 7.0935 14.4273 8.23488V10.625H11.6813V3.49488ZM20.4966 5.80444L17.8849 5.52918C17.9834 5.07263 18.1243 4.71456 18.3079 4.45496C18.4959 4.19088 18.7644 3.96261 19.1135 3.77014C19.3642 3.63139 19.7088 3.52397 20.1474 3.44788C20.5861 3.37179 21.0606 3.33374 21.5708 3.33374C22.3899 3.33374 23.0479 3.38074 23.5447 3.47473C24.0415 3.56425 24.4555 3.75448 24.7868 4.04541C25.0195 4.24683 25.203 4.53329 25.3373 4.90479C25.4716 5.27181 25.5387 5.62317 25.5387 5.95886V9.10769C25.5387 9.44337 25.5588 9.70744 25.5991 9.89987C25.6439 10.0879 25.7379 10.3296 25.8811 10.625H23.3164C23.2134 10.4415 23.1463 10.3027 23.115 10.2087C23.0836 10.1102 23.0523 9.95806 23.021 9.75219C22.6629 10.0968 22.3071 10.343 21.9535 10.4908C21.4701 10.6877 20.9084 10.7861 20.2683 10.7861C19.4179 10.7861 18.7711 10.5892 18.328 10.1953C17.8894 9.80144 17.6701 9.31581 17.6701 8.73837C17.6701 8.19681 17.8289 7.75144 18.1468 7.40237C18.4645 7.05325 19.0509 6.79362 19.9058 6.62356C20.9308 6.41762 21.5954 6.27444 21.8998 6.19385C22.2041 6.10881 22.5264 5.99914 22.8666 5.86487C22.8666 5.52917 22.7972 5.29419 22.6584 5.15991C22.5197 5.02564 22.2758 4.95849 21.9266 4.95849C21.4791 4.95849 21.1434 5.03011 20.9196 5.17334C20.745 5.28524 20.604 5.49561 20.4966 5.80444ZM22.8666 7.24119C22.4906 7.3755 22.0989 7.49412 21.6916 7.59706C21.1366 7.74475 20.7853 7.89019 20.6376 8.03344C20.4854 8.18113 20.4093 8.349 20.4093 8.537C20.4093 8.75181 20.4831 8.92863 20.6309 9.06738C20.7831 9.20169 21.0046 9.26881 21.2955 9.26881C21.5999 9.26881 21.8819 9.19494 22.1415 9.04725C22.4056 8.89956 22.5913 8.7205 22.6988 8.51013C22.8106 8.29531 22.8666 8.01781 22.8666 7.67762V7.24119ZM27.3246 13.3374V3.49488H29.8826V4.54895C30.2362 4.10584 30.5607 3.80595 30.8561 3.64929C31.2544 3.43893 31.6953 3.33374 32.1787 3.33374C33.1321 3.33374 33.8684 3.69853 34.3876 4.4281C34.9113 5.15768 35.1731 6.05957 35.1731 7.13381C35.1731 8.31987 34.8889 9.22625 34.3204 9.85287C33.752 10.4751 33.0336 10.7861 32.1653 10.7861C31.7446 10.7861 31.3596 10.7145 31.0105 10.5713C30.6659 10.4281 30.357 10.2154 30.084 9.9335V13.3374H27.3246ZM30.0638 7.08006C30.0638 7.64406 30.1824 8.06256 30.4197 8.33556C30.6569 8.60862 30.9568 8.74512 31.3193 8.74512C31.6371 8.74512 31.9034 8.61531 32.1183 8.35569C32.3331 8.09162 32.4406 7.64625 32.4406 7.01962C32.4406 6.44225 32.3286 6.01929 32.1049 5.75073C31.8811 5.4777 31.608 5.34119 31.2858 5.34119C30.9366 5.34119 30.6457 5.4777 30.4129 5.75073C30.1802 6.02376 30.0638 6.46688 30.0638 7.08006ZM36.4823 0.782469H39.2148V4.40796C39.5863 4.02303 39.9556 3.74776 40.3226 3.58216C40.6896 3.41654 41.1238 3.33374 41.6251 3.33374C42.3681 3.33374 42.9523 3.55978 43.3774 4.01184C43.8071 4.46391 44.0219 5.15767 44.0219 6.09314V10.625H41.276V6.70412C41.276 6.2565 41.1932 5.94096 41.0276 5.75744C40.862 5.56946 40.6293 5.47546 40.3293 5.47546C39.9981 5.47546 39.7296 5.60079 39.5237 5.85144C39.3178 6.10209 39.2148 6.55194 39.2148 7.20094V10.625H36.4823V0.782469ZM45.7541 0.782469H48.4867V2.64221H45.7541V0.782469ZM45.7541 3.49488H48.4867V10.625H45.7541V3.49488ZM59.155 9.18825C59.5355 9.45231 59.7839 9.61794 59.9003 9.68506C60.0748 9.7835 60.3098 9.89769 60.6053 10.0274L59.7593 11.7328C59.3341 11.5269 58.9133 11.2807 58.4971 10.9942C58.0808 10.7122 57.7899 10.4997 57.6243 10.3564C56.9529 10.6474 56.1114 10.7929 55.0999 10.7929C53.6049 10.7929 52.4255 10.4034 51.5616 9.62463C50.5411 8.70263 50.0309 7.40681 50.0309 5.73731C50.0309 4.11703 50.4763 2.85929 51.3669 1.96411C52.2621 1.06445 53.5109 0.614624 55.1133 0.614624C56.747 0.614624 58.0069 1.05326 58.8932 1.93054C59.7839 2.80782 60.2293 4.06331 60.2293 5.69702C60.2293 7.15169 59.8712 8.31544 59.155 9.18825ZM56.8253 7.63062C57.067 7.19644 57.1879 6.54744 57.1879 5.68359C57.1879 4.68994 57.0021 3.98051 56.6306 3.5553C56.2636 3.13009 55.7556 2.91748 55.1066 2.91748C54.5023 2.91748 54.0122 3.13456 53.6363 3.56873C53.2603 4.00289 53.0723 4.68099 53.0723 5.60303C53.0723 6.67725 53.2558 7.43144 53.6228 7.86562C53.9898 8.29975 54.4934 8.51687 55.1334 8.51687C55.3393 8.51687 55.534 8.49669 55.7175 8.45644C55.4624 8.21025 55.0596 7.9775 54.509 7.75819L54.9857 6.66381C55.2543 6.71306 55.4624 6.7735 55.6101 6.84506C55.7623 6.91669 56.0554 7.10469 56.4896 7.40906C56.5926 7.48069 56.7044 7.5545 56.8253 7.63062ZM61.8674 0.782469H64.9085V8.20131H69.6554V10.625H61.8674V0.782469ZM40.0876 21.875H31.8833C31.9773 21.0649 32.2615 20.3039 32.7359 19.5923C33.2149 18.8761 34.1101 18.0324 35.4215 17.0612C36.2227 16.4659 36.7352 16.0138 36.959 15.7049C37.1828 15.3961 37.2947 15.1029 37.2947 14.8254C37.2947 14.5256 37.1828 14.2704 36.959 14.0601C36.7397 13.8452 36.4621 13.7378 36.1264 13.7378C35.7773 13.7378 35.4909 13.8474 35.2671 14.0667C35.0478 14.2861 34.9001 14.6733 34.824 15.2283L32.0847 15.0067C32.1921 14.2369 32.3891 13.6371 32.6755 13.2074C32.962 12.7732 33.3648 12.442 33.884 12.2137C34.4077 11.981 35.1306 11.8646 36.0526 11.8646C37.0149 11.8646 37.7624 11.9743 38.2951 12.1936C38.8321 12.4129 39.2529 12.7509 39.5573 13.2074C39.8661 13.6594 40.0205 14.1675 40.0205 14.7314C40.0205 15.3312 39.8437 15.9041 39.4901 16.4502C39.141 16.9963 38.5032 17.596 37.5766 18.2495C37.0261 18.6299 36.6569 18.8962 36.4689 19.0484C36.2854 19.2006 36.0683 19.3998 35.8176 19.646H40.0876V21.875ZM41.2559 16.9134C41.2559 15.0425 41.5916 13.7333 42.2629 12.9858C42.9388 12.2384 43.966 11.8646 45.3446 11.8646C46.0071 11.8646 46.5509 11.9474 46.9761 12.1131C47.4013 12.2742 47.7482 12.4867 48.0167 12.7509C48.2853 13.0104 48.4956 13.2858 48.6478 13.5767C48.8045 13.8631 48.9298 14.1988 49.0238 14.5837C49.2073 15.3178 49.2991 16.0832 49.2991 16.8799C49.2991 18.6657 48.9969 19.9727 48.3927 20.8008C47.7884 21.6288 46.7478 22.0429 45.2708 22.0429C44.4427 22.0429 43.7736 21.9108 43.2633 21.6467C42.7531 21.3826 42.3346 20.9955 42.0078 20.4853C41.7706 20.1227 41.5848 19.6281 41.4506 19.0014C41.3208 18.3704 41.2559 17.6744 41.2559 16.9134ZM43.9683 16.9202C43.9683 18.1734 44.0779 19.0306 44.2973 19.4916C44.521 19.9481 44.8433 20.1764 45.2641 20.1764C45.5416 20.1764 45.781 20.0802 45.9824 19.8877C46.1883 19.6908 46.3383 19.3819 46.4323 18.9612C46.5307 18.5404 46.5799 17.8848 46.5799 16.994C46.5799 15.6871 46.4681 14.8097 46.2443 14.3622C46.0249 13.9101 45.6938 13.6841 45.2506 13.6841C44.7986 13.6841 44.4718 13.9146 44.2704 14.3756C44.0689 14.8321 43.9683 15.6803 43.9683 16.9202ZM58.4299 21.875H50.2256C50.3196 21.0649 50.6038 20.3039 51.0783 19.5923C51.5572 18.8761 52.4524 18.0324 53.7638 17.0612C54.565 16.4659 55.0774 16.0138 55.3013 15.7049C55.5251 15.3961 55.6369 15.1029 55.6369 14.8254C55.6369 14.5256 55.5251 14.2704 55.3013 14.0601C55.0819 13.8452 54.8044 13.7378 54.4688 13.7378C54.1196 13.7378 53.8332 13.8474 53.6094 14.0667C53.3901 14.2861 53.2424 14.6733 53.1663 15.2283L50.427 15.0067C50.5344 14.2369 50.7314 13.6371 51.0178 13.2074C51.3043 12.7732 51.7071 12.442 52.2263 12.2137C52.75 11.981 53.4729 11.8646 54.3949 11.8646C55.3572 11.8646 56.1047 11.9743 56.6373 12.1936C57.1744 12.4129 57.5952 12.7509 57.8995 13.2074C58.2084 13.6594 58.3628 14.1675 58.3628 14.7314C58.3628 15.3312 58.186 15.9041 57.8324 16.4502C57.4833 16.9963 56.8454 17.596 55.9189 18.2495C55.3684 18.6299 54.9991 18.8962 54.8111 19.0484C54.6276 19.2006 54.4106 19.3998 54.1599 19.646H58.4299V21.875ZM62.2501 14.8791L59.6653 14.4159C59.8801 13.5923 60.2919 12.9613 60.9006 12.5226C61.5138 12.0839 62.3799 11.8646 63.4991 11.8646C64.7835 11.8646 65.7123 12.1041 66.2854 12.583C66.8579 13.0619 67.1448 13.6639 67.1448 14.3891C67.1448 14.8142 67.0279 15.1992 66.7954 15.5438C66.5629 15.8884 66.211 16.1906 65.7416 16.4502C66.1216 16.5442 66.4129 16.6539 66.6141 16.7792C66.941 16.9806 67.1935 17.2469 67.3729 17.5781C67.556 17.9049 67.6479 18.2965 67.6479 18.7531C67.6479 19.3259 67.4979 19.8765 67.1985 20.4047C66.8985 20.9284 66.4666 21.3334 65.9023 21.6199C65.3385 21.9019 64.5979 22.0429 63.6804 22.0429C62.7848 22.0429 62.0778 21.9377 61.5586 21.7273C61.0439 21.5169 60.6186 21.2103 60.2829 20.8075C59.9518 20.4002 59.6966 19.8899 59.5176 19.2768L62.2501 18.9142C62.3576 19.4648 62.5229 19.8474 62.7473 20.0623C62.9754 20.2726 63.2641 20.3778 63.6129 20.3778C63.9798 20.3778 64.2841 20.2435 64.526 19.975C64.7723 19.7064 64.8954 19.3484 64.8954 18.9007C64.8954 18.4442 64.7766 18.0906 64.5398 17.8399C64.3066 17.5893 63.9891 17.464 63.586 17.464C63.3716 17.464 63.076 17.5177 62.6998 17.6251L62.841 15.6714C62.9929 15.6937 63.1116 15.7049 63.1966 15.7049C63.5548 15.7049 63.8523 15.5908 64.0898 15.3626C64.3316 15.1342 64.4523 14.8635 64.4523 14.5502C64.4523 14.2503 64.3629 14.0108 64.1835 13.8318C64.0048 13.6528 63.7585 13.5633 63.4454 13.5633C63.1229 13.5633 62.861 13.6617 62.6598 13.8586C62.4583 14.0511 62.3218 14.3913 62.2501 14.8791Z" fill="#252525"/>
</svg>
