<svg width="40" height="45" viewBox="0 0 40 45" fill="none" xmlns="http://www.w3.org/2000/svg">
<path d="M20.0066 39.8113L4.9766 31.1335V13.8005L19.9941 5.12987L35.0236 13.8074V31.141L20.0066 39.8113ZM36.9288 12.7075L19.9941 2.92987L3.07129 12.7005V32.2333L20.0066 42.0111L36.9288 32.241V12.7075Z" fill="#33363B"/>
<path d="M7.47848 15.2415C6.37676 17.1582 3.92051 17.8124 2.00395 16.7105C0.0872278 15.6088 -0.566991 13.1527 0.534884 11.236C1.6366 9.31928 4.09285 8.66521 6.00942 9.76693C7.92614 10.8802 8.58035 13.3247 7.47848 15.2415Z" fill="#2c7005f6"/>
<path d="M32.5217 15.2415C31.4198 13.3247 32.0741 10.8802 33.9906 9.76693C35.9075 8.66521 38.352 9.31928 39.4653 11.236C40.567 13.1527 39.913 15.5972 37.9962 16.7105C36.0797 17.8124 33.6234 17.1582 32.5217 15.2415Z" fill="#2c7005f6"/>
<path d="M20.0001 44.9444C17.7851 44.9444 15.9946 43.1539 15.9946 40.9388C15.9946 38.7236 17.7851 36.9333 20.0001 36.9333C22.2153 36.9333 24.0056 38.7236 24.0056 40.9388C24.0056 43.1425 22.2153 44.9444 20.0001 44.9444Z" fill="#2c7005f6"/>
<path d="M18.8847 7.85297C19.2388 7.95516 19.6127 8.01094 19.9999 8.01094C20.3885 8.01094 20.7635 7.95484 21.1185 7.85203L33.2157 28.8042C32.9449 29.0622 32.7058 29.362 32.5099 29.7027C32.3154 30.0413 32.1766 30.3967 32.0889 30.7586H7.91129C7.82348 30.397 7.68473 30.0416 7.48988 29.7027C7.29332 29.3644 7.05473 29.0663 6.78535 28.8092L18.8847 7.85297ZM37.9846 28.2338C37.0025 27.6691 35.8794 27.5666 34.8689 27.8575L22.7689 6.90031C23.5308 6.17141 24.0054 5.145 24.0054 4.00547C24.0054 1.79031 22.215 0 19.9999 0C17.7849 0 15.9944 1.79031 15.9944 4.00547C15.9944 5.14641 16.4702 6.17375 17.2335 6.90266L5.13363 27.8597C4.1227 27.5661 2.99957 27.6678 2.01535 28.2338C0.098633 29.347 -0.55543 31.7916 0.546289 33.7083C1.64816 35.6248 4.0927 36.2791 6.02082 35.1772C7.00395 34.6063 7.65395 33.6845 7.90613 32.6638H32.0927C32.3443 33.6878 32.9946 34.6113 33.9791 35.1772C35.8957 36.2791 38.3519 35.6248 39.4536 33.7083C40.5669 31.7916 39.9127 29.347 37.9846 28.2338Z" fill="#368CBF"/>
</svg>

