<svg width="112" height="30" viewBox="0 0 112 30" fill="none" xmlns="http://www.w3.org/2000/svg">
<path d="M15.4062 10.0156H8.82812V7.71875C8.82812 6.27083 8.76562 5.36458 8.64062 5C8.51562 4.63542 8.21875 4.45312 7.75 4.45312C7.34375 4.45312 7.06771 4.60938 6.92188 4.92188C6.77604 5.23438 6.70312 6.03646 6.70312 7.32812V19.4688C6.70312 20.6042 6.77604 21.3542 6.92188 21.7188C7.06771 22.0729 7.35938 22.25 7.79688 22.25C8.27604 22.25 8.59896 22.0469 8.76562 21.6406C8.94271 21.2344 9.03125 20.4427 9.03125 19.2656V16.2656H7.70312V12.4219H15.4062V26H11.2656L10.6562 24.1875C10.2083 24.9688 9.64062 25.5573 8.95312 25.9531C8.27604 26.3385 7.47396 26.5312 6.54688 26.5312C5.44271 26.5312 4.40625 26.2656 3.4375 25.7344C2.47917 25.1927 1.75 24.526 1.25 23.7344C0.75 22.9427 0.4375 22.1146 0.3125 21.25C0.1875 20.375 0.125 19.0677 0.125 17.3281V9.8125C0.125 7.39583 0.255208 5.64062 0.515625 4.54688C0.776042 3.45312 1.52083 2.45312 2.75 1.54688C3.98958 0.630208 5.58854 0.171875 7.54688 0.171875C9.47396 0.171875 11.0729 0.567708 12.3438 1.35938C13.6146 2.15104 14.4427 3.09375 14.8281 4.1875C15.2135 5.27083 15.4062 6.84896 15.4062 8.92188V10.0156ZM24.0938 5.26562L23.8438 7.98438C24.7604 6.03646 26.0885 5.00521 27.8281 4.89062V12.1875C26.6719 12.1875 25.8229 12.3438 25.2812 12.6562C24.7396 12.9688 24.4062 13.4062 24.2812 13.9688C24.1562 14.5208 24.0938 15.8021 24.0938 17.8125V26H17.7812V5.26562H24.0938ZM34.8906 13.2969H28.9688V11.9062C28.9688 10.3021 29.151 9.06771 29.5156 8.20312C29.8906 7.32812 30.6354 6.55729 31.75 5.89062C32.8646 5.22396 34.3125 4.89062 36.0938 4.89062C38.2292 4.89062 39.8385 5.27083 40.9219 6.03125C42.0052 6.78125 42.6562 7.70833 42.875 8.8125C43.0938 9.90625 43.2031 12.1667 43.2031 15.5938V26H37.0625V24.1562C36.6771 24.8958 36.1771 25.4531 35.5625 25.8281C34.9583 26.1927 34.2344 26.375 33.3906 26.375C32.2865 26.375 31.2708 26.0677 30.3438 25.4531C29.4271 24.8281 28.9688 23.4688 28.9688 21.375V19.6719C28.9688 18.1198 29.2135 17.0625 29.7031 16.5C30.1927 15.9375 31.4062 15.2812 33.3438 14.5312C35.4167 13.7188 36.526 13.1719 36.6719 12.8906C36.8177 12.6094 36.8906 12.0365 36.8906 11.1719C36.8906 10.0885 36.8073 9.38542 36.6406 9.0625C36.4844 8.72917 36.2188 8.5625 35.8438 8.5625C35.4167 8.5625 35.151 8.70312 35.0469 8.98438C34.9427 9.25521 34.8906 9.96875 34.8906 11.125V13.2969ZM36.8906 16.1406C35.8802 16.8802 35.2917 17.5 35.125 18C34.9688 18.5 34.8906 19.2188 34.8906 20.1562C34.8906 21.2292 34.9583 21.9219 35.0938 22.2344C35.2396 22.5469 35.5208 22.7031 35.9375 22.7031C36.3333 22.7031 36.5885 22.5833 36.7031 22.3438C36.8281 22.0938 36.8906 21.4479 36.8906 20.4062V16.1406ZM51.7969 5.26562L51.6875 7.09375C52.25 6.35417 52.8698 5.80208 53.5469 5.4375C54.224 5.07292 54.9635 4.89062 55.7656 4.89062C56.7448 4.89062 57.5885 5.15625 58.2969 5.6875C59.0156 6.20833 59.4635 6.8125 59.6406 7.5C59.8177 8.1875 59.9062 9.35417 59.9062 11V19.7344C59.9062 21.6198 59.7917 22.9635 59.5625 23.7656C59.3438 24.5573 58.8854 25.1927 58.1875 25.6719C57.5 26.1406 56.6667 26.375 55.6875 26.375C54.9062 26.375 54.1823 26.1927 53.5156 25.8281C52.849 25.4635 52.2396 24.9219 51.6875 24.2031V28.9531H45.375V5.26562H51.7969ZM53.5938 11.2969C53.5938 10.0156 53.5469 9.23958 53.4531 8.96875C53.3594 8.69792 53.099 8.5625 52.6719 8.5625C52.2552 8.5625 51.9844 8.71875 51.8594 9.03125C51.7448 9.34375 51.6875 10.099 51.6875 11.2969V19.8906C51.6875 21.1406 51.75 21.9219 51.875 22.2344C52 22.5469 52.2708 22.7031 52.6875 22.7031C53.0938 22.7031 53.3438 22.5625 53.4375 22.2812C53.5417 21.9896 53.5938 21.2917 53.5938 20.1875V11.2969ZM68.3125 0.703125V6.39062C68.8542 5.89062 69.4375 5.51562 70.0625 5.26562C70.6979 5.01562 71.375 4.89062 72.0938 4.89062C73.1979 4.89062 74.1354 5.17188 74.9062 5.73438C75.6875 6.29688 76.1615 6.94792 76.3281 7.6875C76.5052 8.41667 76.5938 9.75521 76.5938 11.7031V26H70.2812V11.4062C70.2812 10.1979 70.2188 9.42188 70.0938 9.07812C69.9792 8.73438 69.7135 8.5625 69.2969 8.5625C68.9115 8.5625 68.651 8.73958 68.5156 9.09375C68.3802 9.44792 68.3125 10.151 68.3125 11.2031V26H62V0.703125H68.3125ZM85.2812 0.703125V4H78.7812V0.703125H85.2812ZM85.2812 5.26562V26H78.7812V5.26562H85.2812ZM102.797 26V29.0625H97.8281C96.6302 29.0625 95.7865 28.9688 95.2969 28.7812C94.8073 28.6042 94.474 28.3333 94.2969 27.9688C94.1302 27.6042 94.0469 26.9479 94.0469 26C92.5573 25.9583 91.276 25.5677 90.2031 24.8281C89.1302 24.0885 88.4219 23.151 88.0781 22.0156C87.7344 20.8698 87.5625 19.1615 87.5625 16.8906V9.0625C87.5625 7.34375 87.6615 6.03646 87.8594 5.14062C88.0677 4.23438 88.4896 3.38542 89.125 2.59375C89.7604 1.79167 90.5781 1.1875 91.5781 0.78125C92.5781 0.375 93.6875 0.171875 94.9062 0.171875C96.375 0.171875 97.6823 0.421875 98.8281 0.921875C99.9844 1.42188 100.844 2.05729 101.406 2.82812C101.979 3.59896 102.349 4.40104 102.516 5.23438C102.693 6.05729 102.781 7.28646 102.781 8.92188V17.1406C102.781 19.3906 102.672 20.9167 102.453 21.7188C102.234 22.5208 101.812 23.1615 101.188 23.6406C100.573 24.1094 99.75 24.4688 98.7188 24.7188C98.75 25.2812 98.8646 25.6354 99.0625 25.7812C99.2708 25.9271 99.7552 26 100.516 26H102.797ZM96.2031 7.20312C96.2031 6.02604 96.1354 5.27604 96 4.95312C95.875 4.61979 95.6094 4.45312 95.2031 4.45312C94.8594 4.45312 94.5938 4.58854 94.4062 4.85938C94.2292 5.11979 94.1406 5.90104 94.1406 7.20312V19.0156C94.1406 20.4844 94.1979 21.3906 94.3125 21.7344C94.4375 22.0781 94.7188 22.25 95.1562 22.25C95.6042 22.25 95.8906 22.0521 96.0156 21.6562C96.1406 21.2604 96.2031 20.3177 96.2031 18.8281V7.20312ZM111.562 0.703125V26H105.062V0.703125H111.562Z" fill="#0E0E27"/>
</svg>
