<svg width="15" height="18" viewBox="0 0 15 18" fill="none" xmlns="http://www.w3.org/2000/svg">
<path d="M10.1786 4.28571C10.1786 3.57531 9.89637 2.89401 9.39404 2.39168C8.89171 1.88935 8.2104 1.60714 7.5 1.60714C6.7896 1.60714 6.10829 1.88935 5.60596 2.39168C5.10363 2.89401 4.82143 3.57531 4.82143 4.28571C4.82143 4.99612 5.10363 5.67742 5.60596 6.17975C6.10829 6.68208 6.7896 6.96428 7.5 6.96428C8.2104 6.96428 8.89171 6.68208 9.39404 6.17975C9.89637 5.67742 10.1786 4.99612 10.1786 4.28571ZM3.21429 4.28571C3.21429 3.14907 3.66581 2.05898 4.46954 1.25526C5.27327 0.451529 6.36336 0 7.5 0C8.63664 0 9.72673 0.451529 10.5305 1.25526C11.3342 2.05898 11.7857 3.14907 11.7857 4.28571C11.7857 5.42236 11.3342 6.51244 10.5305 7.31617C9.72673 8.1199 8.63664 8.57143 7.5 8.57143C6.36336 8.57143 5.27327 8.1199 4.46954 7.31617C3.66581 6.51244 3.21429 5.42236 3.21429 4.28571ZM1.65067 15.5357H13.3493C13.0513 13.4163 11.2299 11.7857 9.03013 11.7857H5.96987C3.77009 11.7857 1.94866 13.4163 1.65067 15.5357ZM0 16.1484C0 12.8504 2.67188 10.1786 5.96987 10.1786H9.03013C12.3281 10.1786 15 12.8504 15 16.1484C15 16.6975 14.5547 17.1429 14.0056 17.1429H0.99442C0.445313 17.1429 0 16.6975 0 16.1484Z" fill="#0E0E27"/>
</svg>
