<svg width="315" height="130" viewBox="0 0 324 138" fill="none" xmlns="http://www.w3.org/2000/svg">
<g clip-path="url(#clip0_227_72)">
<path d="M56.3763 89.4321C55.8074 89.4202 55.2566 89.2355 54.8013 88.9037C54.3461 88.572 54.0093 88.1099 53.8383 87.5826C52.62 83.8836 51.4335 80.1846 50.247 76.5226C49.2994 73.5881 48.3477 70.6535 47.3917 67.719C46.4145 64.7351 48.3434 63.5515 49.5807 63.1137C51.7533 62.2779 54.026 61.7124 56.3446 61.4307C56.7824 61.3937 57.1885 61.3752 57.5819 61.3752C59.5189 61.3349 61.4315 61.8005 63.1201 62.7233C64.8087 63.6462 66.2115 64.9924 67.1821 66.6216C68.3276 68.5029 68.9717 70.6322 69.0559 72.8166C69.1401 75.0009 68.6618 77.1711 67.6643 79.1304C65.5704 82.9773 62.4613 85.3632 59.4474 87.6812C58.8954 88.1066 58.337 88.532 57.7913 88.9697L57.639 89.0745C57.2613 89.3122 56.82 89.4366 56.37 89.4321H56.3763ZM57.5058 70.2466C58.0959 72.3612 58.7748 74.482 59.4537 76.5596C60.0655 75.8252 60.3993 74.9089 60.3991 73.9641C60.1009 71.6954 59.1301 70.4439 57.5058 70.2466Z" fill="#231F20"/>
<path d="M238.183 70.6474H237.954L235.987 70.4132C234.35 70.2159 232.941 70.0433 231.546 69.9261C230.702 69.8398 229.49 69.7104 228.836 68.6561C228.183 67.6019 228.652 66.4922 228.925 65.8264C230.194 62.8241 231.279 60.1855 232.504 57.2509L232.897 56.3138C233.532 54.7911 234.604 54.563 235.207 54.563C235.809 54.563 236.983 54.7479 237.485 56.4741L237.523 56.5974L240.372 67.2629C240.542 67.6706 240.61 68.1119 240.571 68.5504C240.531 68.9888 240.384 69.4118 240.143 69.7843C239.913 70.0721 239.614 70.301 239.273 70.4514C238.931 70.6018 238.557 70.669 238.183 70.6474Z" fill="#231F20"/>
<path d="M272.674 64.1926C272.04 64.1926 270.606 63.946 270.308 61.6835C270.136 60.3827 269.946 59.0819 269.749 57.7811C269.553 56.4802 269.331 54.9637 269.147 53.5457C269.042 52.7753 269.225 51.994 269.663 51.3436C270.101 50.6933 270.764 50.2169 271.532 50.0008L272.256 49.7481C273.698 49.1638 275.228 48.8099 276.786 48.7H276.888C277.933 48.6891 278.973 48.8368 279.971 49.1377L280.453 49.2672C281.234 49.446 283.626 50.0008 284.261 51.9613C284.895 53.9218 283.201 55.574 282.662 56.1288C280.904 57.9105 279 59.5566 277.16 61.1533C276.348 61.8561 275.542 62.5589 274.743 63.2679C274.205 63.8276 273.462 64.1597 272.674 64.1926Z" fill="#231F20"/>
<path d="M176.921 79.3525C176.285 79.3739 175.661 79.1848 175.15 78.8162C173.392 77.4902 172.03 75.7324 171.205 73.7242C170.379 71.7161 170.121 69.5303 170.455 67.3924C171.318 61.0055 176.54 56.3879 182.879 56.3879C183.128 56.3879 183.38 56.3879 183.634 56.3879C184.307 56.4255 184.975 56.5183 185.632 56.6654H185.715L187.111 57.0784C188.535 57.4608 189.925 57.9556 191.267 58.558C191.803 58.7578 192.281 59.0818 192.659 59.5019C193.038 59.922 193.304 60.4254 193.437 60.9685C193.541 61.5575 193.493 62.1624 193.298 62.7292C193.104 63.2961 192.767 63.8073 192.32 64.2175C188.936 67.863 185.565 71.5168 182.206 75.1788C181.863 75.5487 181.533 75.9309 181.203 76.3132C180.569 77.0591 179.884 77.8298 179.129 78.5511C178.521 79.0679 177.734 79.3431 176.927 79.3217L176.921 79.3525ZM182.231 63.7859C181.233 64.0767 180.339 64.6363 179.654 65.4001C178.969 66.1638 178.521 67.1004 178.361 68.1014L180.632 65.6046L182.231 63.7859Z" fill="#231F20"/>
<path d="M98.9837 96.7686C97.2303 96.8028 95.4931 96.4368 93.9118 95.7002C92.3304 94.9635 90.949 93.8767 89.8784 92.5271C87.664 89.6604 87.0612 85.7949 88.2224 81.9172C89.4914 77.8051 93.933 74.4575 98.1588 74.4575C98.3661 74.4575 98.5776 74.4575 98.7933 74.4575C99.2595 74.5047 99.7178 74.6083 100.158 74.7658C100.47 74.8693 100.75 75.0502 100.969 75.2905C101.187 75.5308 101.338 75.8223 101.406 76.1364C101.474 76.4504 101.457 76.7763 101.356 77.0818C101.255 77.3874 101.073 77.6621 100.83 77.8791L100.602 78.0825L100.119 78.5079C98.6981 79.7409 98.108 80.8629 98.108 82.2994C98.108 83.7358 100.348 85.5298 102.245 85.5483C104.237 85.5483 106.052 83.5755 106.604 81.7445C106.668 81.5411 106.725 81.3253 106.775 81.128C106.826 80.9308 106.871 80.7705 106.921 80.5917C107.009 80.2801 107.178 79.9962 107.413 79.7681C107.649 79.54 107.941 79.3757 108.262 79.2915C108.583 79.2074 108.921 79.2063 109.242 79.2884C109.564 79.3704 109.857 79.5328 110.094 79.7594L110.145 79.8087C110.552 80.1798 110.916 80.5933 111.23 81.0417C111.29 81.1276 111.343 81.2184 111.388 81.313C112.822 84.3153 112.588 87.5458 110.697 90.6406C108.19 94.7712 104.428 96.8056 99.1804 96.8056L98.9837 96.7686Z" fill="#231F20"/>
<path d="M256.736 117.471C254.927 117.471 253.607 116.54 252.821 114.709C251.552 111.811 250.283 108.877 248.982 106.041L248.906 105.868C247.897 103.624 246.755 101.084 245.67 98.6057C244.35 95.5848 243.043 92.5085 241.78 89.537C240.79 87.2066 239.794 84.8783 238.792 82.5521C238.351 81.5569 237.851 80.5874 237.294 79.6483H237.205C235.232 79.3031 233.214 78.9517 231.254 78.7606C229.033 83.2919 226.857 87.8786 224.75 92.3236C223.904 94.0867 223.058 95.852 222.212 97.6193L221.444 99.2468C220.416 101.417 219.363 103.649 218.195 105.813C217.781 106.529 217.199 107.14 216.497 107.598C215.795 108.057 214.993 108.349 214.154 108.451C210.347 108.704 206.425 108.87 202.993 109.025H202.694L199.56 109.166H198.361C197.726 109.166 196.165 109.166 195.315 107.816C194.465 106.466 195.144 105.153 195.55 104.37C196.495 102.576 197.39 100.733 198.259 98.9509C199.465 96.4849 200.708 93.9203 202.098 91.4358C203.012 89.8144 204.636 88.5198 206.032 87.5642L213.868 80.3327C214.038 80.1553 214.166 79.9446 214.245 79.7149C214.324 79.4852 214.351 79.2418 214.325 79.001C214.309 78.7807 214.243 78.5663 214.134 78.3727C214.024 78.179 213.873 78.0106 213.69 77.879L213.608 77.8235C211.349 76.2699 210.803 74.0814 212.072 71.6585C214.12 67.7294 216.157 63.7899 218.183 59.8402L223.348 49.853C225.137 46.3841 226.926 42.9153 228.716 39.4465L229.534 37.8621C230.6 35.7845 231.692 33.6576 232.846 31.5861C233.114 31.0605 233.538 30.6251 234.064 30.3363C234.589 30.0475 235.192 29.9187 235.793 29.9665C236.395 30.0144 236.968 30.2366 237.438 30.6045C237.908 30.9724 238.254 31.469 238.43 32.03C238.925 33.1335 239.407 34.2925 239.87 35.4207C240.181 36.179 240.505 36.9373 240.822 37.6956C241.96 40.3712 243.104 43.0427 244.255 45.7101C245.642 48.9364 247.023 52.1669 248.398 55.4015C249.331 57.6085 250.251 59.8156 251.165 62.0288L251.234 62.2014C252.459 65.1483 253.842 68.4836 255.213 71.6585C256.387 74.3834 257.668 77.207 258.798 79.7162L258.887 79.9073C259.654 81.6026 260.416 83.298 261.171 84.9934C261.552 85.8565 261.901 86.7258 262.23 87.5642C262.56 88.4026 262.865 89.0931 263.151 89.8144C265.727 95.6896 268.449 101.953 270.911 108.235C271.164 108.883 271.393 109.438 271.59 109.906C272.376 111.811 272.947 113.186 272.053 114.616C271.158 116.046 269.705 116.176 267.852 116.355C264.965 116.638 261.171 117.014 257.427 117.434C257.198 117.459 256.967 117.472 256.736 117.471ZM233.722 65.7833L235.435 65.9806L234.737 63.3543L233.722 65.7833Z" fill="#231F20"/>
<path d="M182.543 93.9511C176.775 93.9511 171.807 92.4715 167.777 89.5493C160.62 84.3522 157.498 77.0467 158.742 68.4157C159.719 61.5849 163.482 56.0241 169.909 51.9059C174.819 48.6826 180.621 46.9842 186.546 47.0356C189.31 47.052 192.063 47.3621 194.757 47.9603C198.945 48.8604 202.688 51.1168 206.178 54.8466C206.766 55.5644 207.09 56.4533 207.097 57.3709C207.104 58.2886 206.794 59.182 206.216 59.908C204.744 61.474 203.234 62.9905 201.775 64.427L201.724 64.4763C200.651 65.549 199.573 66.6217 198.551 67.7068C196.438 69.8953 194.579 71.8435 192.682 73.8717C194.246 73.1687 195.684 72.2258 196.94 71.079C197.852 70.0965 199.127 69.5047 200.486 69.4329C201.773 69.4883 202.985 70.0331 203.862 70.9495C204.871 71.8804 205.892 72.799 206.914 73.7299L206.997 73.8039C208.494 75.1541 210.036 76.5473 211.527 77.953C211.861 78.2694 212.126 78.6476 212.308 79.0653C212.489 79.483 212.582 79.9317 212.582 80.385C212.582 80.8383 212.489 81.2871 212.308 81.7048C212.126 82.1224 211.861 82.5007 211.527 82.8171C203.83 89.95 194.395 93.6922 183.424 93.9511H182.581H182.543ZM182.879 60.7033C178.799 60.7033 175.423 63.755 174.859 67.9534C174.662 69.1348 174.748 70.3444 175.11 71.4884C175.472 72.6324 176.1 73.6799 176.946 74.5499C177.238 74.2293 177.53 73.8964 177.815 73.5635C178.183 73.1381 178.539 72.7374 178.9 72.3305C182.052 68.9028 185.207 65.4832 188.367 62.072C187.537 61.7552 186.69 61.4815 185.829 61.252L184.44 60.8451C184.071 60.7761 183.698 60.7308 183.323 60.7095L182.879 60.7033Z" fill="#231F20"/>
<path d="M121.629 115.793C120.836 115.793 118.222 115.516 118.006 111.965C118.006 111.54 117.962 111.133 117.937 110.732C117.892 109.918 117.854 109.148 117.784 108.266C117.512 104.493 117.956 101.485 119.18 98.8768C122.461 91.8487 122.182 84.9377 118.349 78.3289C118.21 78.1111 118.053 77.9049 117.88 77.7124C117.676 77.4781 117.473 77.2438 117.289 76.9972C115.424 74.5312 114.32 72.4968 114.199 69.4389C114.072 66.2208 113.8 62.9287 113.533 59.7476C113.425 58.5146 113.324 57.2508 113.229 56.0486C112.679 56.2507 112.097 56.3592 111.509 56.3692C110.911 56.3801 110.321 56.2369 109.798 55.9543C109.275 55.6717 108.839 55.2597 108.533 54.7601L108.463 54.643C107.713 53.1285 107.356 51.4584 107.423 49.7788C107.423 48.9589 107.708 46.9367 110.513 46.0798C113.438 45.229 116.395 44.4029 119.263 43.6138C121.915 42.874 124.529 42.1466 127.131 41.3944C127.598 41.2478 128.086 41.1688 128.577 41.1602C129.294 41.1602 131.661 41.4129 131.851 44.6434C132.086 48.4595 132.353 52.3311 132.619 56.1226L141.661 43.731C142.524 42.5473 143.501 41.1971 145.309 41.1971C146.864 41.1971 147.797 42.1774 148.869 43.3179C150.487 45.0318 152.289 46.6901 154.034 48.293L155.341 49.526C155.976 50.0994 156.61 50.6604 157.245 51.2214C158.272 52.1277 159.338 53.0709 160.354 54.0758C161.667 55.352 161.413 57.8919 160.271 59.0694C157.93 61.4861 155.525 63.9028 153.196 66.2455C151.635 67.8176 150.119 69.328 148.609 70.8754C147.099 72.4228 145.436 74.1058 143.831 75.8074L146.49 76.7938C149.028 77.7247 151.566 78.6864 154.104 79.6975C157.156 80.9305 160.068 82.2806 162.187 85.5912C164.205 88.7354 167.467 91.2075 171.623 92.7426C173.114 93.2913 174.744 93.7352 176.324 94.1605C177.447 94.4626 178.602 94.777 179.751 95.1346C180.504 95.3885 181.166 95.848 181.658 96.458C182.15 97.0681 182.45 97.803 182.523 98.5747C182.574 100.739 182.574 102.939 182.574 105.066C182.574 106.386 182.574 107.711 182.574 109.03C182.611 109.514 182.545 109.999 182.38 110.456C182.215 110.913 181.955 111.332 181.616 111.688C181.336 111.962 181.001 112.18 180.633 112.327C180.265 112.474 179.87 112.548 179.471 112.545C178.767 112.522 178.079 112.334 177.466 111.996L173.463 109.961C171.159 108.784 168.869 107.619 166.572 106.466C165.017 105.689 163.399 104.937 161.87 104.209C160.601 103.63 159.402 103.069 158.177 102.508L158.107 102.477C155.982 101.503 153.786 100.498 151.642 99.4624C148.019 97.7054 144.358 95.8929 140.817 94.1421L140.728 94.0989L135.455 91.5281V99.3515C135.466 99.4787 135.466 99.6065 135.455 99.7337C135.455 100.712 135.455 101.69 135.455 102.668C135.455 105.048 135.455 107.508 135.487 109.918C135.551 112.508 134.148 113.975 131.331 114.234C128.659 114.483 126.008 114.918 123.4 115.535C122.823 115.692 122.228 115.778 121.629 115.793Z" fill="#231F20"/>
<path d="M53.9335 131.071C53.0642 131.071 51.4589 130.756 50.5008 128.654C48.9484 125.218 47.3832 121.792 45.8054 118.377L45.7039 118.155C44.0922 114.645 42.4869 111.129 40.888 107.607C39.8728 105.356 38.8766 103.063 37.9121 100.825L37.8804 100.776C36.7637 98.1988 35.6088 95.5417 34.4223 92.9586C33.4261 90.7885 32.3348 88.5999 31.2498 86.4792C30.4566 84.8886 29.6508 83.2672 28.8767 81.6458C28.4008 80.6594 27.982 79.6607 27.5696 78.6866C27.2079 77.8297 26.8399 76.9481 26.4465 76.122C26.2625 75.7274 26.0912 75.3021 25.9199 74.889C25.8057 74.5992 25.628 74.1615 25.463 73.8101C25.1077 73.9643 24.7016 74.1615 24.4288 74.291C24.1559 74.4205 23.7435 74.6239 23.4262 74.7657C22.4863 75.2146 21.4591 75.4646 20.4123 75.4993C17.8743 75.4993 16.7258 73.4402 16.0977 72.3305C14.1053 68.8781 11.7259 64.7723 9.1688 60.7034C8.80814 60.2104 8.55606 59.6505 8.42832 59.0586C8.30058 58.4666 8.29993 57.8555 8.42642 57.2633C8.5823 56.7392 8.84904 56.2524 9.20959 55.8342C9.57014 55.4159 10.0166 55.0754 10.5203 54.8343C11.2754 54.4212 12.0304 53.9959 12.7855 53.5643C14.8681 52.3227 17.0274 51.2068 19.2512 50.2229C29.6952 45.8581 40.2725 43.4414 49.0731 43.4414H49.3079C50.4183 43.4414 52.601 43.4414 54.2 43.4414H55.5388C60.12 43.8236 60.6847 43.9593 64.1681 45.5067C71.1478 48.6631 77.8863 52.7382 80.1197 61.1904C81.7187 67.2568 80.64 73.5759 76.8964 79.9813C73.451 85.875 68.5716 90.8378 61.5603 95.5787C62.1948 98.2173 62.9245 100.874 63.6034 103.458V103.544C64.1491 105.603 64.6948 107.662 65.2214 109.709C65.9448 112.532 66.6237 115.399 67.2836 118.173L67.9181 120.867C67.9562 121.028 68.0069 121.213 68.064 121.41C68.4511 122.785 69.3331 125.935 66.5856 127.014C65.6719 127.365 65.2785 127.495 64.6821 127.686L63.6542 128.019L61.5603 128.716C59.5679 129.381 57.5248 130.053 55.5515 130.762C55.0352 130.957 54.4874 131.062 53.9335 131.071ZM51.7635 66.9177C52.6645 69.6796 53.5613 72.4456 54.4538 75.2157C55.3844 78.0927 56.3193 80.9697 57.2583 83.8467C59.9106 81.8 62.1948 79.9381 63.743 77.0652C64.3836 75.7648 64.6856 74.3313 64.6225 72.8909C64.5594 71.4504 64.1332 70.0471 63.3814 68.8042C62.801 67.8158 61.9544 66.9998 60.9327 66.4437C59.9109 65.8875 58.7525 65.6124 57.5819 65.6477C57.3218 65.6477 57.0489 65.6477 56.7761 65.6847C55.0611 65.9024 53.3785 66.3163 51.7635 66.9177Z" fill="#231F20"/>
<path d="M93.8442 114.733C87.0549 114.733 81.4839 112.027 77.7403 106.898C74.3266 102.218 73.2987 96.417 74.7517 90.1411C76.338 83.3596 80.1324 77.9961 86.3569 73.7114C90.5707 70.7615 95.6366 69.1819 100.83 69.1986C102.38 69.2024 103.926 69.3261 105.456 69.5685C111.281 70.4748 115.817 73.7607 118.571 79.0688C119.508 80.7781 120.141 82.629 120.443 84.5433C120.532 84.9748 120.62 85.4125 120.728 85.9119C120.763 86.0783 120.78 86.2477 120.779 86.4174C120.779 86.5531 120.811 86.8613 120.843 87.1141C120.907 87.6233 120.939 88.136 120.938 88.6492C120.969 94.0435 119.212 99.0063 115.563 103.827C110.589 110.405 103.965 114.049 95.8936 114.653C95.1766 114.709 94.5041 114.733 93.8442 114.733ZM93.73 80.9984C93.1522 81.6088 92.719 82.3348 92.4609 83.1253C91.6932 85.6838 92.0358 88.1683 93.4064 89.9068C94.0603 90.7319 94.9075 91.3935 95.8776 91.8363C96.8477 92.2792 97.9126 92.4906 98.9837 92.4529H99.1741C102.803 92.4529 105.17 91.2199 106.858 88.4395C105.523 89.3801 103.919 89.893 102.27 89.9068H102.156C98.1842 89.8637 93.5967 86.5407 93.6157 82.3239C93.622 81.8798 93.6623 81.4367 93.7363 80.9984H93.73Z" fill="#231F20"/>
<path d="M179.509 43.3858C178.675 43.4141 177.862 43.1293 177.238 42.5905C175.334 40.9013 175.22 38.6943 176.895 36.8324C179.662 33.7499 182.409 30.5688 185.061 27.474L185.163 27.3569C186.356 25.9677 187.551 24.5806 188.748 23.1955C188.818 23.1092 188.9 23.0105 188.995 22.9181C189.391 22.4786 189.879 22.1259 190.426 21.8836C190.973 21.6413 191.567 21.5147 192.168 21.5125C192.781 21.513 193.387 21.6409 193.945 21.8876C194.503 22.1343 195 22.494 195.404 22.9427L199.966 28.0288C200.257 28.3527 200.495 28.7188 200.67 29.1139L200.702 29.194C201.133 30.1207 201.18 31.1729 200.834 32.1324C200.488 33.092 199.775 33.8854 198.843 34.348L182.104 42.8248C181.845 42.9606 181.571 43.0661 181.286 43.1392C180.707 43.2946 180.11 43.3775 179.509 43.3858Z" fill="#231F20"/>
<path d="M270.301 99.9126C269.444 99.9169 268.605 99.6705 267.893 99.2055C267.181 98.7404 266.63 98.0782 266.31 97.3048C263.728 91.0905 262.186 84.8207 260.898 78.9763C260.213 76.3438 259.756 74.408 259.115 71.7386V71.6708C258.785 70.2775 258.404 68.6931 257.928 66.7388C257.554 65.2653 257.161 63.7673 256.767 62.2692L256.697 61.9917C256.329 60.5861 255.949 59.1497 255.581 57.6762C255.001 58.0691 254.314 58.2839 253.607 58.2927C251.069 58.2927 250.511 56.0055 249.965 53.7985L249.921 53.6135C249.248 50.8948 248.462 48.1452 247.7 45.4819C247.412 44.4832 247.127 43.4824 246.844 42.4796L246.786 42.2823C246.59 41.7835 246.509 41.249 246.548 40.7164C246.588 40.1838 246.747 39.6661 247.015 39.1998C247.299 38.781 247.673 38.4269 248.111 38.1619C248.549 37.8969 249.041 37.7273 249.553 37.6647C258.506 35.322 264.813 34.089 274.35 33.8301H274.508C281.412 34.1938 286.862 34.4836 292.122 37.5291C293.957 38.5275 295.537 39.9142 296.745 41.5865C297.953 43.2588 298.759 45.1738 299.102 47.1896C299.889 51.6962 296.938 55.1116 295.352 56.9426C292.899 59.8306 290.271 62.5747 287.484 65.1605C285.698 66.7421 283.827 68.232 281.881 69.624L281.811 69.6795C281.044 70.2467 280.276 70.82 279.521 71.3995C279.414 71.485 279.302 71.5633 279.185 71.6338C278.501 72.0344 277.863 72.5034 277.281 73.0332C277.326 73.6873 277.426 74.3368 277.579 74.9752L277.681 75.4992C278.423 79.3462 279.026 83.2548 279.584 87.0401C279.87 88.8896 280.155 90.7391 280.46 92.5886C280.726 94.2408 280.409 96.4663 277.332 97.6747L271.748 99.6721C271.284 99.8323 270.794 99.9137 270.301 99.9126ZM273.683 53.8416C273.836 54.9575 274.001 56.0733 274.166 57.1584L274.267 57.855C275.93 56.4124 277.636 54.9328 279.178 53.3916L278.766 53.2806C278.186 53.0969 277.58 53.0053 276.97 53.0093C275.877 53.1098 274.806 53.376 273.798 53.7985L273.683 53.8416Z" fill="#231F20"/>
<path d="M309.007 100.283C308.778 100.283 308.518 100.283 308.233 100.246L304.698 99.8818C302.04 99.5983 299.527 99.3332 297.084 99.1667C296.45 99.1667 295.824 99.0365 295.245 98.7847C294.667 98.5329 294.15 98.1651 293.728 97.7056C292.636 96.3925 292.884 94.7279 292.973 94.0991C293.867 88.0697 294.66 82.1945 295.511 75.6843C295.739 73.9951 295.942 72.3059 296.145 70.6166V70.4687C296.348 68.7733 296.577 66.893 296.824 65.025H296.475C295.903 65.0205 295.339 64.8933 294.824 64.6524C294.308 64.4116 293.854 64.063 293.493 63.6317C293.235 63.3461 293.048 63.0064 292.947 62.6392C292.61 61.619 292.635 60.5185 293.017 59.5135C293.055 59.4087 293.093 59.2916 293.131 59.1559C293.272 58.5934 293.448 58.0396 293.658 57.4976C294.959 54.0698 296.989 52.4114 300.669 51.7641C304.236 51.0663 307.763 50.1855 311.234 49.1255L312.738 48.694C313.252 48.5287 313.789 48.4373 314.33 48.4227C314.761 48.4128 315.189 48.4936 315.584 48.6596C315.979 48.8256 316.333 49.0729 316.621 49.3844C316.962 49.808 317.206 50.2985 317.334 50.822C317.462 51.3456 317.472 51.8899 317.363 52.4176C316.132 64.316 314.92 76.4241 313.753 88.1375L313.34 92.2743C313.29 92.7859 313.264 93.3408 313.239 93.8771C313.214 94.4135 313.188 95.0485 313.131 95.6712V95.9239C313.017 97.2247 312.744 100.289 309.057 100.289L309.007 100.283Z" fill="#231F20"/>
<path d="M310.637 46.7705H310.199C306.722 46.6657 304.045 45.6362 302.287 43.688C300.701 41.9433 300.022 39.6438 300.288 36.8634C300.809 31.3519 304.279 27.7947 309.14 27.7947H309.457C312.204 27.881 315.231 29.3667 317.357 31.6663C319.038 33.5158 319.895 35.5379 319.736 37.449C319.368 42.0358 315.866 46.7705 310.637 46.7705Z" fill="#231F20"/>
<path d="M256.736 116.854C255.992 116.85 255.269 116.617 254.67 116.188C254.072 115.759 253.629 115.157 253.404 114.468C252.135 111.509 250.784 108.513 249.483 105.615C248.398 103.199 247.313 100.788 246.253 98.359C244.934 95.3443 243.627 92.2742 242.364 89.2965C241.374 86.962 240.378 84.6316 239.375 82.3054C238.883 81.2005 238.321 80.1258 237.694 79.0873L237.313 79.0195C235.245 78.6557 233.106 78.2858 231.032 78.1009C230.938 78.145 230.85 78.201 230.771 78.2673C228.525 82.8417 226.33 87.5148 224.166 92.0461C223.32 93.8134 222.474 95.5786 221.628 97.3418L220.848 98.9817C219.826 101.139 218.773 103.365 217.612 105.517C217.246 106.14 216.738 106.672 216.126 107.073C215.514 107.474 214.815 107.733 214.084 107.828C210.277 108.081 206.362 108.248 202.923 108.402L199.433 108.556H198.335C197.739 108.556 196.495 108.556 195.797 107.502C195.099 106.447 195.664 105.412 196.057 104.66C196.996 102.872 197.897 101.022 198.773 99.2283C199.979 96.7623 201.222 94.2038 202.58 91.744C203.43 90.2336 204.96 89.0314 206.387 88.045L214.255 80.7826C214.492 80.5372 214.671 80.2447 214.781 79.9255C214.891 79.6062 214.928 79.2677 214.89 78.9331C214.863 78.6205 214.766 78.3174 214.604 78.0456C214.443 77.7738 214.222 77.5401 213.957 77.3611H213.919C212.498 76.4117 211.108 74.6978 212.548 71.9482C214.596 68.015 216.635 64.0735 218.665 60.1238L223.659 50.4447C225.503 46.869 227.347 43.2934 229.191 39.7177L230.01 38.1333C231.063 36.0742 232.155 33.9472 233.316 31.8758C233.521 31.4496 233.855 31.0944 234.273 30.8576C234.692 30.6208 235.175 30.5137 235.657 30.5506C236.14 30.5874 236.6 30.7665 236.975 31.0639C237.35 31.3613 237.623 31.7628 237.757 32.2149C238.265 33.3554 238.747 34.5206 239.21 35.6488C239.528 36.4071 239.845 37.1715 240.162 37.9298C241.3 40.6054 242.444 43.2769 243.595 45.9443C244.978 49.1706 246.359 52.399 247.738 55.6295C248.694 57.89 249.64 60.1505 250.574 62.411C251.844 65.4935 253.201 68.7363 254.553 71.8742C255.714 74.5745 256.945 77.3056 258.144 79.9442C258.937 81.7012 259.73 83.4582 260.511 85.2153C260.885 86.066 261.228 86.9291 261.564 87.7614C261.901 88.5937 262.199 89.2965 262.497 90.0363C265.067 95.8992 267.782 102.15 270.244 108.439C270.498 109.092 270.727 109.672 270.923 110.122C271.697 111.971 272.161 113.112 271.431 114.283C270.701 115.455 269.451 115.559 267.706 115.732C264.826 116.009 261.044 116.385 257.275 116.811C257.079 116.834 256.882 116.846 256.685 116.848L256.736 116.854ZM232.821 66.3011C233.912 66.4059 235.035 66.5415 236.285 66.6956L234.87 61.3938C234.185 63.0213 233.5 64.618 232.815 66.3134L232.821 66.3011Z" fill="#231F20"/>
<path d="M182.542 93.3345C176.914 93.3345 172.079 91.8919 168.158 89.056C161.178 84.0069 158.158 76.8987 159.37 68.5019C160.322 61.8499 163.989 56.4371 170.258 52.4175C175.076 49.284 180.749 47.6242 186.546 47.652C189.263 47.6693 191.969 47.9752 194.617 48.5644C198.672 49.4398 202.314 51.6469 205.74 55.2657C206.216 55.8735 206.476 56.6147 206.482 57.3783C206.487 58.1418 206.238 58.8866 205.772 59.5011C204.319 61.0423 202.809 62.5466 201.33 64.0077C200.239 65.0989 199.141 66.1901 198.069 67.2998C195.264 70.1973 192.917 72.6818 190.321 75.4314C192.929 74.6441 195.325 73.3026 197.333 71.5043C198.129 70.6376 199.243 70.1086 200.435 70.0309C201.558 70.0923 202.612 70.5767 203.373 71.381C204.414 72.3366 205.461 73.286 206.546 74.2354C208.037 75.5793 209.572 76.9726 211.064 78.3782C211.337 78.6373 211.555 78.9469 211.703 79.2889C211.852 79.6309 211.928 79.9984 211.928 80.3695C211.928 80.7407 211.852 81.1081 211.703 81.4501C211.555 81.7921 211.337 82.1018 211.064 82.3608C203.475 89.3827 194.16 93.0694 183.373 93.3222H182.542V93.3345ZM182.879 60.0867C178.475 60.0867 174.839 63.3603 174.23 67.8731C174.001 69.2565 174.131 70.6736 174.608 71.9957C175.086 73.3179 175.896 74.5031 176.965 75.4437C177.415 74.9752 177.847 74.4758 178.297 73.958C178.653 73.5511 179.008 73.1442 179.37 72.725C182.72 69.0876 186.072 65.4544 189.427 61.8253C188.324 61.3461 187.185 60.9504 186.019 60.6416L184.643 60.247C184.224 60.1617 183.8 60.1081 183.373 60.0867H182.879Z" fill="#231F20"/>
<path d="M121.629 115.177C120.589 115.177 118.812 114.758 118.641 111.928C118.641 111.503 118.596 111.096 118.571 110.695C118.527 109.894 118.488 109.117 118.419 108.229C118.152 104.567 118.584 101.676 119.764 99.1357C123.133 91.9165 122.841 84.8206 118.907 78.033C118.749 77.7877 118.568 77.5566 118.368 77.3425C118.178 77.1205 117.981 76.8986 117.803 76.6643C116.008 74.2908 114.948 72.3488 114.834 69.4451C114.707 66.2147 114.428 62.9164 114.161 59.7229C114.034 58.2002 113.907 56.6774 113.793 55.1547C113.085 55.5156 112.307 55.7258 111.509 55.7712C111.021 55.7802 110.538 55.6635 110.112 55.4328C109.685 55.2022 109.328 54.8659 109.079 54.458L109.009 54.3409C108.324 52.9217 108 51.3635 108.063 49.7973C108.063 48.9465 108.393 47.393 110.703 46.7148C113.622 45.8641 116.579 45.0379 119.447 44.2488C122.073 43.5152 124.7 42.7816 127.315 42.0294C127.725 41.8994 128.152 41.8287 128.584 41.8198C129.326 41.8198 131.071 42.1034 131.223 44.7235C131.496 49.1253 131.807 53.5949 132.111 57.9413L142.181 44.1317C142.993 43.0158 143.831 41.8568 145.309 41.8568C146.578 41.8568 147.39 42.7014 148.406 43.7741C150.043 45.5065 151.857 47.1772 153.615 48.7924L154.884 49.9884C155.519 50.5679 156.153 51.129 156.788 51.6961C157.809 52.5962 158.869 53.5456 159.871 54.5259C160.874 55.5061 160.709 57.707 159.782 58.6626C157.428 61.0854 155.011 63.5206 152.676 65.8756C151.157 67.4045 149.641 68.9355 148.126 70.4685C146.35 72.2687 144.573 74.1244 142.714 76.1033L146.242 77.4165C148.742 78.3412 151.318 79.3029 153.856 80.314C156.921 81.547 159.624 82.78 161.642 85.9611C163.729 89.2224 167.105 91.7809 171.388 93.3591C172.91 93.9201 174.484 94.3455 176.153 94.7956C177.263 95.0976 178.412 95.4121 179.541 95.7635C180.169 95.9768 180.722 96.3588 181.135 96.8652C181.548 97.3715 181.805 97.9814 181.876 98.624C181.927 100.782 181.927 102.976 181.927 105.103C181.927 106.429 181.927 107.748 181.927 109.074C181.978 109.882 181.7 110.677 181.153 111.287C180.931 111.504 180.667 111.676 180.376 111.792C180.085 111.909 179.773 111.967 179.459 111.965C178.858 111.94 178.273 111.775 177.752 111.484L173.786 109.407C171.493 108.239 169.201 107.076 166.908 105.917C165.353 105.14 163.735 104.382 162.187 103.655C160.918 103.075 159.713 102.514 158.488 101.953C156.343 100.973 154.129 99.9557 151.959 98.9076C148.31 97.1383 144.624 95.3134 141.052 93.5502L134.821 90.4677V99.3453C134.831 99.456 134.831 99.5675 134.821 99.6782C134.821 100.656 134.821 101.633 134.821 102.607C134.821 104.992 134.821 107.458 134.853 109.869C134.935 113.21 132.169 113.494 131.261 113.568C128.566 113.845 125.894 114.308 123.266 114.955C122.732 115.096 122.182 115.17 121.629 115.177Z" fill="#231F20"/>
<path d="M53.9335 130.454C53.0579 130.454 51.8523 130.096 51.0846 128.401C49.4983 124.891 47.8993 121.398 46.2877 117.921C44.676 114.444 43.0707 110.929 41.4718 107.378C40.4565 105.128 39.4604 102.829 38.4959 100.597C37.3665 98.0015 36.2053 95.3136 35.0061 92.7058C34.0036 90.5234 32.9059 88.3163 31.8335 86.1832C31.0531 84.6173 30.2409 82.9959 29.4732 81.3807C29.0036 80.4066 28.5849 79.4079 28.2041 78.4462C27.8234 77.4844 27.4681 76.7015 27.0747 75.863C26.8971 75.4808 26.7257 75.0677 26.5608 74.63C26.3575 74.0655 26.1049 73.519 25.8057 72.9963C25.254 73.2001 24.7157 73.4369 24.194 73.7053C23.8577 73.8717 23.5278 74.032 23.2169 74.1677C22.3452 74.5975 21.389 74.8413 20.4124 74.8828C18.2741 74.8828 17.2398 73.1011 16.6497 72.0346C14.6573 68.5452 12.2716 64.427 9.70817 60.3211C9.39351 59.8977 9.17148 59.4161 9.0558 58.9061C8.94013 58.3961 8.93325 57.8684 9.03559 57.3557C9.1712 56.9125 9.40034 56.5017 9.70841 56.1493C10.0165 55.7969 10.3967 55.5107 10.8249 55.309C11.5863 54.8959 12.3477 54.4644 13.1028 54.0328C15.1636 52.8096 17.2995 51.7101 19.4987 50.7407C29.8666 46.4684 40.3614 44.0579 49.0541 44.0579H49.2826C50.4374 44.0579 52.6201 44.0579 54.2191 44.0579H55.5388C59.8726 44.4216 60.3738 44.4956 63.9017 46.0676C70.729 49.1501 77.3343 53.1451 79.5043 61.3445C81.0652 67.2505 79.9992 73.4155 76.3317 79.6792C72.88 85.579 67.9626 90.5419 60.8624 95.2951V95.3444C61.554 98.1371 62.3027 100.961 63.0261 103.698C63.5718 105.757 64.1174 107.816 64.6441 109.863C65.3674 112.699 66.0527 115.584 66.7189 118.371L67.3534 121.003C67.3978 121.182 67.455 121.379 67.5121 121.62C67.9055 123.007 68.6351 125.59 66.4017 126.459C65.507 126.804 65.1326 126.921 64.4981 127.119L63.4766 127.452L61.3827 128.148C59.403 128.808 57.3535 129.486 55.3612 130.195C54.9042 130.37 54.4185 130.464 53.9272 130.472L53.9335 130.454ZM50.9894 66.5909C51.9496 69.5254 52.9014 72.4641 53.8447 75.4068C54.8684 78.5756 55.8963 81.7424 56.9284 84.9071L57.0871 84.7838C59.9106 82.6137 62.5819 80.5607 64.3014 77.3858C64.9913 75.99 65.3173 74.4509 65.2509 72.9039C65.1846 71.3569 64.7277 69.8495 63.9207 68.5144C63.2854 67.4334 62.3591 66.5409 61.2412 65.9327C60.1234 65.3245 58.8562 65.0235 57.5756 65.062C57.2964 65.062 57.0046 65.062 56.7127 65.099C54.7446 65.3375 52.8153 65.816 50.9704 66.5231L50.9894 66.5909Z" fill="#231F20"/>
<path d="M93.8442 114.117C87.2644 114.117 81.8774 111.497 78.2607 106.54C74.9549 102.003 73.9587 96.3802 75.3736 90.2768C76.8965 83.7543 80.7162 78.3476 86.725 74.2479C90.8313 71.3719 95.7683 69.8312 100.83 69.8461C102.346 69.8504 103.859 69.9721 105.354 70.2098C110.97 71.0852 115.341 74.254 118 79.3771C118.913 81.0372 119.526 82.8365 119.815 84.6975C119.897 85.0982 119.986 85.5483 120.1 86.0723C120.126 86.1961 120.139 86.3221 120.138 86.4484C120.138 86.6148 120.17 86.9169 120.202 87.2067C120.264 87.6893 120.296 88.1752 120.297 88.6616C120.329 93.9327 118.616 98.7845 115.05 103.495C110.189 109.918 103.724 113.482 95.8176 114.074C95.1831 114.123 94.4851 114.148 93.8442 114.148V114.117ZM94.9039 79.1983C93.4764 80.0703 92.3993 81.391 91.8519 82.9405C91.027 85.6839 91.4077 88.3657 92.8988 90.2953C93.6128 91.1947 94.5373 91.9156 95.5957 92.3981C96.654 92.8806 97.8155 93.1108 98.9838 93.0696H99.1678C103.051 93.0696 105.589 91.7379 107.416 88.7541C107.914 87.966 108.254 87.0938 108.419 86.1833C107.699 87.1111 106.774 87.8698 105.712 88.4034C104.65 88.9369 103.478 89.2317 102.283 89.2658H102.156C98.565 89.2288 94.2376 86.1093 94.2567 82.3055C94.2556 81.2381 94.4757 80.1814 94.9039 79.1983Z" fill="#231F20"/>
<path d="M179.509 42.7694C178.838 42.7998 178.179 42.5792 177.669 42.1529C176.039 40.6918 175.931 38.8608 177.377 37.2579C180.157 34.1754 182.917 30.9635 185.582 27.8563C186.8 26.4384 188.018 25.0225 189.236 23.6086C189.3 23.5285 189.37 23.4483 189.439 23.3744C189.78 22.9878 190.202 22.6773 190.677 22.4645C191.153 22.2516 191.67 22.1414 192.193 22.1414C192.717 22.1434 193.235 22.2544 193.711 22.4671C194.187 22.6798 194.611 22.9892 194.953 23.3744L199.49 28.4543C199.737 28.7284 199.938 29.0384 200.087 29.3729L200.118 29.453C200.484 30.2379 200.525 31.1291 200.233 31.9425C199.941 32.756 199.339 33.4295 198.551 33.824L181.8 42.27C181.581 42.3844 181.349 42.4734 181.108 42.5351C180.588 42.6779 180.05 42.7566 179.509 42.7694Z" fill="#231F20"/>
<path d="M270.302 99.296C269.571 99.2994 268.857 99.0896 268.25 98.6939C267.644 98.2982 267.174 97.7348 266.901 97.0766C264.363 90.9116 262.802 84.6665 261.52 78.8529C260.828 76.1773 260.365 74.2292 259.724 71.5413C259.394 70.148 259.014 68.5636 258.538 66.6093C258.144 65.068 257.738 63.5268 257.326 61.9547C256.869 60.2285 256.406 58.4592 255.962 56.6836C255.326 57.2903 254.49 57.6574 253.601 57.7194C251.571 57.7194 251.108 55.8699 250.575 53.6998L250.53 53.5148C249.858 50.7899 249.071 48.0342 248.309 45.3647C248.022 44.366 247.738 43.3652 247.459 42.3624L247.402 42.1651C247.229 41.7461 247.154 41.2954 247.18 40.8448C247.206 40.3941 247.334 39.9546 247.554 39.5573C247.791 39.2209 248.098 38.937 248.456 38.7244C248.813 38.5119 249.213 38.3755 249.629 38.3243C258.582 35.9878 264.857 34.7548 274.337 34.4958H274.496C281.012 34.8473 286.647 35.1432 291.767 38.0839C293.519 39.0414 295.028 40.3698 296.18 41.9706C297.332 43.5714 298.099 45.4036 298.423 47.3314C299.159 51.5605 296.329 54.8341 294.813 56.5788C292.364 59.4373 289.743 62.1526 286.964 64.7104C285.191 66.2785 283.336 67.7559 281.406 69.1369C280.606 69.7534 279.807 70.3206 279.026 70.9248C278.927 71.0013 278.824 71.0714 278.715 71.1344C277.956 71.5949 277.261 72.1481 276.647 72.7804C276.649 73.5603 276.751 74.3369 276.951 75.0923L277.053 75.6163C277.789 79.4509 278.398 83.3595 278.956 87.1387C279.242 88.9882 279.527 90.8377 279.832 92.6872C280.175 94.7709 279.248 96.2567 277.091 97.1075L271.571 99.0741C271.164 99.2204 270.735 99.2956 270.302 99.296ZM272.986 53.4285C273.151 54.7047 273.347 55.9932 273.531 57.2446C273.62 57.8611 273.715 58.4776 273.804 59.0941L274.604 58.3975C276.387 56.8501 278.233 55.2472 279.889 53.5703C280.045 53.4164 280.191 53.2538 280.327 53.0833C280.082 52.9962 279.832 52.9241 279.578 52.8675L278.944 52.7011C278.3 52.499 277.627 52.399 276.951 52.4051C275.786 52.5058 274.645 52.7846 273.569 53.2312L272.986 53.4285Z" fill="#231F20"/>
<path d="M309.007 99.666C308.797 99.666 308.556 99.666 308.296 99.6291L304.768 99.2653C302.103 98.9817 299.584 98.7166 297.103 98.5502C296.557 98.5534 296.016 98.4453 295.516 98.2329C295.015 98.0205 294.566 97.7086 294.197 97.3172C293.871 96.8678 293.646 96.3566 293.536 95.817C293.427 95.2774 293.436 94.7214 293.563 94.1854C294.457 88.156 295.25 82.2746 296.101 75.7644C296.335 74.0259 296.545 72.2812 296.735 70.5365C296.983 68.4835 297.236 66.3628 297.528 64.2729C297.172 64.366 296.806 64.4157 296.437 64.4208C295.95 64.4194 295.469 64.3123 295.03 64.1076C294.591 63.9028 294.205 63.6054 293.899 63.2371C293.705 63.0246 293.564 62.7715 293.486 62.4973C293.182 61.5904 293.205 60.6099 293.55 59.7169C293.588 59.606 293.632 59.4827 293.67 59.3347C293.806 58.7888 293.975 58.2514 294.178 57.7256C295.409 54.489 297.236 52.9909 300.707 52.3868C304.302 51.6846 307.856 50.7976 311.354 49.7297L312.845 49.3043C313.302 49.156 313.779 49.073 314.26 49.0577C314.593 49.0506 314.924 49.1124 315.23 49.2389C315.536 49.3653 315.811 49.5537 316.037 49.7913C316.316 50.1528 316.512 50.5682 316.612 51.0096C316.711 51.451 316.712 51.908 316.614 52.3498C315.345 64.3468 314.152 76.5597 312.972 88.3718L312.592 92.2064C312.541 92.7366 312.515 93.2791 312.49 93.8525C312.465 94.4258 312.439 95.0053 312.382 95.6033V95.8499C312.357 97.1877 312.135 99.666 309.007 99.666Z" fill="#231F20"/>
<path d="M310.637 46.154H310.231C306.925 46.0554 304.394 45.0936 302.757 43.2935C301.285 41.6782 300.669 39.539 300.91 36.9374C301.399 31.7711 304.622 28.4297 309.159 28.4297H309.451C312.033 28.5098 314.889 29.9155 316.9 32.1287C318.467 33.8241 319.254 35.7105 319.114 37.4491C318.753 41.7091 315.498 46.154 310.637 46.154Z" fill="#231F20"/>
<path d="M256.736 116.854C255.992 116.85 255.269 116.617 254.67 116.188C254.072 115.759 253.629 115.157 253.404 114.468C252.135 111.509 250.784 108.513 249.483 105.615C248.398 103.199 247.313 100.788 246.253 98.359C244.934 95.3443 243.627 92.2742 242.364 89.2965C241.374 86.962 240.378 84.6316 239.375 82.3054C238.883 81.2005 238.321 80.1258 237.694 79.0873L237.313 79.0195C235.245 78.6557 233.106 78.2858 231.032 78.1009C230.938 78.145 230.85 78.201 230.771 78.2673C228.525 82.8417 226.33 87.5148 224.166 92.0461C223.32 93.8134 222.474 95.5786 221.628 97.3418L220.848 98.9817C219.826 101.139 218.773 103.365 217.612 105.517C217.246 106.14 216.738 106.672 216.126 107.073C215.514 107.474 214.815 107.733 214.084 107.828C210.277 108.081 206.362 108.248 202.923 108.402L199.433 108.556H198.335C197.739 108.556 196.495 108.556 195.797 107.502C195.099 106.447 195.664 105.412 196.057 104.66C196.996 102.872 197.897 101.022 198.773 99.2283C199.979 96.7623 201.222 94.2038 202.58 91.744C203.43 90.2336 204.96 89.0314 206.387 88.045L214.255 80.7826C214.492 80.5372 214.671 80.2447 214.781 79.9255C214.891 79.6062 214.928 79.2677 214.89 78.9331C214.863 78.6205 214.766 78.3174 214.604 78.0456C214.443 77.7738 214.222 77.5401 213.957 77.3611H213.919C212.498 76.4117 211.108 74.6978 212.548 71.9482C214.596 68.015 216.635 64.0735 218.665 60.1238L223.659 50.4447C225.503 46.869 227.347 43.2934 229.191 39.7177L230.01 38.1333C231.063 36.0742 232.155 33.9472 233.316 31.8758C233.521 31.4496 233.855 31.0944 234.273 30.8576C234.692 30.6208 235.175 30.5137 235.657 30.5506C236.14 30.5874 236.6 30.7665 236.975 31.0639C237.35 31.3613 237.623 31.7628 237.757 32.2149C238.265 33.3554 238.747 34.5206 239.21 35.6488C239.528 36.4071 239.845 37.1715 240.162 37.9298C241.3 40.6054 242.444 43.2769 243.595 45.9443C244.978 49.1706 246.359 52.399 247.738 55.6295C248.694 57.89 249.64 60.1505 250.574 62.411C251.844 65.4935 253.201 68.7363 254.553 71.8742C255.714 74.5745 256.945 77.3056 258.144 79.9442C258.937 81.7012 259.73 83.4582 260.511 85.2153C260.885 86.066 261.228 86.9291 261.564 87.7614C261.901 88.5937 262.199 89.2965 262.497 90.0363C265.067 95.8992 267.782 102.15 270.244 108.439C270.498 109.092 270.727 109.672 270.923 110.122C271.697 111.971 272.161 113.112 271.431 114.283C270.701 115.455 269.451 115.559 267.706 115.732C264.826 116.009 261.044 116.385 257.275 116.811C257.079 116.834 256.882 116.846 256.685 116.848L256.736 116.854ZM232.821 66.3011C233.912 66.4059 235.035 66.5415 236.285 66.6956L234.87 61.3938C234.185 63.0213 233.5 64.618 232.815 66.3134L232.821 66.3011Z" fill="#231F20"/>
<path d="M182.542 93.3345C176.914 93.3345 172.079 91.8919 168.158 89.056C161.178 84.0069 158.158 76.8987 159.37 68.5019C160.322 61.8499 163.989 56.4371 170.258 52.4175C175.076 49.284 180.749 47.6242 186.546 47.652C189.263 47.6693 191.969 47.9752 194.617 48.5644C198.672 49.4398 202.314 51.6469 205.74 55.2657C206.216 55.8735 206.476 56.6147 206.482 57.3783C206.487 58.1418 206.238 58.8866 205.772 59.5011C204.319 61.0423 202.809 62.5466 201.33 64.0077C200.239 65.0989 199.141 66.1901 198.069 67.2998C195.264 70.1973 192.917 72.6818 190.321 75.4314C192.929 74.6441 195.325 73.3026 197.333 71.5043C198.129 70.6376 199.243 70.1086 200.435 70.0309C201.558 70.0923 202.612 70.5767 203.373 71.381C204.414 72.3366 205.461 73.286 206.546 74.2354C208.037 75.5793 209.572 76.9726 211.064 78.3782C211.337 78.6373 211.555 78.9469 211.703 79.2889C211.852 79.6309 211.928 79.9984 211.928 80.3695C211.928 80.7407 211.852 81.1081 211.703 81.4501C211.555 81.7921 211.337 82.1018 211.064 82.3608C203.475 89.3827 194.16 93.0694 183.373 93.3222H182.542V93.3345ZM182.879 60.0867C178.475 60.0867 174.839 63.3603 174.23 67.8731C174.001 69.2565 174.131 70.6736 174.608 71.9957C175.086 73.3179 175.896 74.5031 176.965 75.4437C177.415 74.9752 177.847 74.4758 178.297 73.958C178.653 73.5511 179.008 73.1442 179.37 72.725C182.72 69.0876 186.072 65.4544 189.427 61.8253C188.324 61.3461 187.185 60.9504 186.019 60.6416L184.643 60.247C184.224 60.1617 183.8 60.1081 183.373 60.0867H182.879Z" fill="#231F20"/>
<path d="M121.629 115.177C120.589 115.177 118.812 114.758 118.641 111.928C118.641 111.503 118.596 111.096 118.571 110.695C118.527 109.894 118.488 109.117 118.419 108.229C118.152 104.567 118.584 101.676 119.764 99.1357C123.133 91.9165 122.841 84.8206 118.907 78.033C118.749 77.7877 118.568 77.5566 118.368 77.3425C118.178 77.1205 117.981 76.8986 117.803 76.6643C116.008 74.2908 114.948 72.3488 114.834 69.4451C114.707 66.2147 114.428 62.9164 114.161 59.7229C114.034 58.2002 113.907 56.6774 113.793 55.1547C113.085 55.5156 112.307 55.7258 111.509 55.7712C111.021 55.7802 110.538 55.6635 110.112 55.4328C109.685 55.2022 109.328 54.8659 109.079 54.458L109.009 54.3409C108.324 52.9217 108 51.3635 108.063 49.7973C108.063 48.9465 108.393 47.393 110.703 46.7148C113.622 45.8641 116.579 45.0379 119.447 44.2488C122.073 43.5152 124.7 42.7816 127.315 42.0294C127.725 41.8994 128.152 41.8287 128.584 41.8198C129.326 41.8198 131.071 42.1034 131.223 44.7235C131.496 49.1253 131.807 53.5949 132.111 57.9413L142.181 44.1317C142.993 43.0158 143.831 41.8568 145.309 41.8568C146.578 41.8568 147.39 42.7014 148.406 43.7741C150.043 45.5065 151.857 47.1772 153.615 48.7924L154.884 49.9884C155.519 50.5679 156.153 51.129 156.788 51.6961C157.809 52.5962 158.869 53.5456 159.871 54.5259C160.874 55.5061 160.709 57.707 159.782 58.6626C157.428 61.0854 155.011 63.5206 152.676 65.8756C151.157 67.4045 149.641 68.9355 148.126 70.4685C146.35 72.2687 144.573 74.1244 142.714 76.1033L146.242 77.4165C148.742 78.3412 151.318 79.3029 153.856 80.314C156.921 81.547 159.624 82.78 161.642 85.9611C163.729 89.2224 167.105 91.7809 171.388 93.3591C172.91 93.9201 174.484 94.3455 176.153 94.7956C177.263 95.0976 178.412 95.4121 179.541 95.7635C180.169 95.9768 180.722 96.3588 181.135 96.8652C181.548 97.3715 181.805 97.9814 181.876 98.624C181.927 100.782 181.927 102.976 181.927 105.103C181.927 106.429 181.927 107.748 181.927 109.074C181.978 109.882 181.7 110.677 181.153 111.287C180.931 111.504 180.667 111.676 180.376 111.792C180.085 111.909 179.773 111.967 179.459 111.965C178.858 111.94 178.273 111.775 177.752 111.484L173.786 109.407C171.493 108.239 169.201 107.076 166.908 105.917C165.353 105.14 163.735 104.382 162.187 103.655C160.918 103.075 159.713 102.514 158.488 101.953C156.343 100.973 154.129 99.9557 151.959 98.9076C148.31 97.1383 144.624 95.3134 141.052 93.5502L134.821 90.4677V99.3453C134.831 99.456 134.831 99.5675 134.821 99.6782C134.821 100.656 134.821 101.633 134.821 102.607C134.821 104.992 134.821 107.458 134.853 109.869C134.935 113.21 132.169 113.494 131.261 113.568C128.566 113.845 125.894 114.308 123.266 114.955C122.732 115.096 122.182 115.17 121.629 115.177Z" fill="#231F20"/>
<path d="M53.9335 130.454C53.0579 130.454 51.8523 130.096 51.0846 128.401C49.4983 124.891 47.8993 121.398 46.2877 117.921C44.676 114.444 43.0707 110.929 41.4718 107.378C40.4565 105.128 39.4604 102.829 38.4959 100.597C37.3665 98.0015 36.2053 95.3136 35.0061 92.7058C34.0036 90.5234 32.9059 88.3163 31.8335 86.1832C31.0531 84.6173 30.2409 82.9959 29.4732 81.3807C29.0036 80.4066 28.5849 79.4079 28.2041 78.4462C27.8234 77.4844 27.4681 76.7015 27.0747 75.863C26.8971 75.4808 26.7257 75.0677 26.5608 74.63C26.3575 74.0655 26.1049 73.519 25.8057 72.9963C25.254 73.2001 24.7157 73.4369 24.194 73.7053C23.8577 73.8717 23.5278 74.032 23.2169 74.1677C22.3452 74.5975 21.389 74.8413 20.4124 74.8828C18.2741 74.8828 17.2398 73.1011 16.6497 72.0346C14.6573 68.5452 12.2716 64.427 9.70817 60.3211C9.39351 59.8977 9.17148 59.4161 9.0558 58.9061C8.94013 58.3961 8.93325 57.8684 9.03559 57.3557C9.1712 56.9125 9.40034 56.5017 9.70841 56.1493C10.0165 55.7969 10.3967 55.5107 10.8249 55.309C11.5863 54.8959 12.3477 54.4644 13.1028 54.0328C15.1636 52.8096 17.2995 51.7101 19.4987 50.7407C29.8666 46.4684 40.3614 44.0579 49.0541 44.0579H49.2826C50.4374 44.0579 52.6201 44.0579 54.2191 44.0579H55.5388C59.8726 44.4216 60.3738 44.4956 63.9017 46.0676C70.729 49.1501 77.3343 53.1451 79.5043 61.3445C81.0652 67.2505 79.9992 73.4155 76.3317 79.6792C72.88 85.579 67.9626 90.5419 60.8624 95.2951V95.3444C61.554 98.1371 62.3027 100.961 63.0261 103.698C63.5718 105.757 64.1174 107.816 64.6441 109.863C65.3674 112.699 66.0527 115.584 66.7189 118.371L67.3534 121.003C67.3978 121.182 67.455 121.379 67.5121 121.62C67.9055 123.007 68.6351 125.59 66.4017 126.459C65.507 126.804 65.1326 126.921 64.4981 127.119L63.4766 127.452L61.3827 128.148C59.403 128.808 57.3535 129.486 55.3612 130.195C54.9042 130.37 54.4185 130.464 53.9272 130.472L53.9335 130.454ZM50.9894 66.5909C51.9496 69.5254 52.9014 72.4641 53.8447 75.4068C54.8684 78.5756 55.8963 81.7424 56.9284 84.9071L57.0871 84.7838C59.9106 82.6137 62.5819 80.5607 64.3014 77.3858C64.9913 75.99 65.3173 74.4509 65.2509 72.9039C65.1846 71.3569 64.7277 69.8495 63.9207 68.5144C63.2854 67.4334 62.3591 66.5409 61.2412 65.9327C60.1234 65.3245 58.8562 65.0235 57.5756 65.062C57.2964 65.062 57.0046 65.062 56.7127 65.099C54.7446 65.3375 52.8153 65.816 50.9704 66.5231L50.9894 66.5909Z" fill="#231F20"/>
<path d="M93.8442 114.117C87.2644 114.117 81.8774 111.497 78.2607 106.54C74.9549 102.003 73.9587 96.3802 75.3736 90.2768C76.8965 83.7543 80.7162 78.3476 86.725 74.2479C90.8313 71.3719 95.7683 69.8312 100.83 69.8461C102.346 69.8504 103.859 69.9721 105.354 70.2098C110.97 71.0852 115.341 74.254 118 79.3771C118.913 81.0372 119.526 82.8365 119.815 84.6975C119.897 85.0982 119.986 85.5483 120.1 86.0723C120.126 86.1961 120.139 86.3221 120.138 86.4484C120.138 86.6148 120.17 86.9169 120.202 87.2067C120.264 87.6893 120.296 88.1752 120.297 88.6616C120.329 93.9327 118.616 98.7845 115.05 103.495C110.189 109.918 103.724 113.482 95.8176 114.074C95.1831 114.123 94.4851 114.148 93.8442 114.148V114.117ZM94.9039 79.1983C93.4764 80.0703 92.3993 81.391 91.8519 82.9405C91.027 85.6839 91.4077 88.3657 92.8988 90.2953C93.6128 91.1947 94.5373 91.9156 95.5957 92.3981C96.654 92.8806 97.8155 93.1108 98.9838 93.0696H99.1678C103.051 93.0696 105.589 91.7379 107.416 88.7541C107.914 87.966 108.254 87.0938 108.419 86.1833C107.699 87.1111 106.774 87.8698 105.712 88.4034C104.65 88.9369 103.478 89.2317 102.283 89.2658H102.156C98.565 89.2288 94.2376 86.1093 94.2567 82.3055C94.2556 81.2381 94.4757 80.1814 94.9039 79.1983Z" fill="#231F20"/>
<path d="M179.509 42.7694C178.838 42.7998 178.179 42.5792 177.669 42.1529C176.039 40.6918 175.931 38.8608 177.377 37.2579C180.157 34.1754 182.917 30.9635 185.582 27.8563C186.8 26.4384 188.018 25.0225 189.236 23.6086C189.3 23.5285 189.37 23.4483 189.439 23.3744C189.78 22.9878 190.202 22.6773 190.677 22.4645C191.153 22.2516 191.67 22.1414 192.193 22.1414C192.717 22.1434 193.235 22.2544 193.711 22.4671C194.187 22.6798 194.611 22.9892 194.953 23.3744L199.49 28.4543C199.737 28.7284 199.938 29.0384 200.087 29.3729L200.118 29.453C200.484 30.2379 200.525 31.1291 200.233 31.9425C199.941 32.756 199.339 33.4295 198.551 33.824L181.8 42.27C181.581 42.3844 181.349 42.4734 181.108 42.5351C180.588 42.6779 180.05 42.7566 179.509 42.7694Z" fill="#231F20"/>
<path d="M270.302 99.296C269.571 99.2994 268.857 99.0896 268.25 98.6939C267.644 98.2982 267.174 97.7348 266.901 97.0766C264.363 90.9116 262.802 84.6665 261.52 78.8529C260.828 76.1773 260.365 74.2292 259.724 71.5413C259.394 70.148 259.014 68.5636 258.538 66.6093C258.144 65.068 257.738 63.5268 257.326 61.9547C256.869 60.2285 256.406 58.4592 255.962 56.6836C255.326 57.2903 254.49 57.6574 253.601 57.7194C251.571 57.7194 251.108 55.8699 250.575 53.6998L250.53 53.5148C249.858 50.7899 249.071 48.0342 248.309 45.3647C248.022 44.366 247.738 43.3652 247.459 42.3624L247.402 42.1651C247.229 41.7461 247.154 41.2954 247.18 40.8448C247.206 40.3941 247.334 39.9546 247.554 39.5573C247.791 39.2209 248.098 38.937 248.456 38.7244C248.813 38.5119 249.213 38.3755 249.629 38.3243C258.582 35.9878 264.857 34.7548 274.337 34.4958H274.496C281.012 34.8473 286.647 35.1432 291.767 38.0839C293.519 39.0414 295.028 40.3698 296.18 41.9706C297.332 43.5714 298.099 45.4036 298.423 47.3314C299.159 51.5605 296.329 54.8341 294.813 56.5788C292.364 59.4373 289.743 62.1526 286.964 64.7104C285.191 66.2785 283.336 67.7559 281.406 69.1369C280.606 69.7534 279.807 70.3206 279.026 70.9248C278.927 71.0013 278.824 71.0714 278.715 71.1344C277.956 71.5949 277.261 72.1481 276.647 72.7804C276.649 73.5603 276.751 74.3369 276.951 75.0923L277.053 75.6163C277.789 79.4509 278.398 83.3595 278.956 87.1387C279.242 88.9882 279.527 90.8377 279.832 92.6872C280.175 94.7709 279.248 96.2567 277.091 97.1075L271.571 99.0741C271.164 99.2204 270.735 99.2956 270.302 99.296ZM272.986 53.4285C273.151 54.7047 273.347 55.9932 273.531 57.2446C273.62 57.8611 273.715 58.4776 273.804 59.0941L274.604 58.3975C276.387 56.8501 278.233 55.2472 279.889 53.5703C280.045 53.4164 280.191 53.2538 280.327 53.0833C280.082 52.9962 279.832 52.9241 279.578 52.8675L278.944 52.7011C278.3 52.499 277.627 52.399 276.951 52.4051C275.786 52.5058 274.645 52.7846 273.569 53.2312L272.986 53.4285Z" fill="#231F20"/>
<path d="M309.007 99.666C308.797 99.666 308.556 99.666 308.296 99.6291L304.768 99.2653C302.103 98.9817 299.584 98.7166 297.103 98.5502C296.557 98.5534 296.016 98.4453 295.516 98.2329C295.015 98.0205 294.566 97.7086 294.197 97.3172C293.871 96.8678 293.646 96.3566 293.536 95.817C293.427 95.2774 293.436 94.7214 293.563 94.1854C294.457 88.156 295.25 82.2746 296.101 75.7644C296.335 74.0259 296.545 72.2812 296.735 70.5365C296.983 68.4835 297.236 66.3628 297.528 64.2729C297.172 64.366 296.806 64.4157 296.437 64.4208C295.95 64.4194 295.469 64.3123 295.03 64.1076C294.591 63.9028 294.205 63.6054 293.899 63.2371C293.705 63.0246 293.564 62.7715 293.486 62.4973C293.182 61.5904 293.205 60.6099 293.55 59.7169C293.588 59.606 293.632 59.4827 293.67 59.3347C293.806 58.7888 293.975 58.2514 294.178 57.7256C295.409 54.489 297.236 52.9909 300.707 52.3868C304.302 51.6846 307.856 50.7976 311.354 49.7297L312.845 49.3043C313.302 49.156 313.779 49.073 314.26 49.0577C314.593 49.0506 314.924 49.1124 315.23 49.2389C315.536 49.3653 315.811 49.5537 316.037 49.7913C316.316 50.1528 316.512 50.5682 316.612 51.0096C316.711 51.451 316.712 51.908 316.614 52.3498C315.345 64.3468 314.152 76.5597 312.972 88.3718L312.592 92.2064C312.541 92.7366 312.515 93.2791 312.49 93.8525C312.465 94.4258 312.439 95.0053 312.382 95.6033V95.8499C312.357 97.1877 312.135 99.666 309.007 99.666Z" fill="#231F20"/>
<path d="M310.637 46.154H310.231C306.925 46.0554 304.394 45.0936 302.757 43.2935C301.285 41.6782 300.669 39.539 300.91 36.9374C301.399 31.7711 304.622 28.4297 309.159 28.4297H309.451C312.033 28.5098 314.889 29.9155 316.9 32.1287C318.467 33.8241 319.254 35.7105 319.114 37.4491C318.753 41.7091 315.498 46.154 310.637 46.154Z" fill="#231F20"/>
<path d="M321.76 37.4612C322.255 33.38 320.142 30.8647 317.382 28.5467C314.355 26.0005 309.336 25.0018 305.682 26.2718C304.925 26.507 304.21 26.8543 303.562 27.3013C300.085 29.6255 298.651 33.0471 297.96 36.9372C297.877 37.3811 297.858 37.714 297.325 38.0037C296.906 38.238 296.367 37.8003 296.012 37.4366C294.984 36.4008 295.016 36.4687 292.458 34.8596C287.526 32.5081 282.089 31.329 276.596 31.4195C273.836 31.475 271.075 31.549 268.347 31.7155C266.235 31.7883 264.132 32.0088 262.053 32.3751C257.51 33.2937 253.017 34.428 248.487 35.4021C247.022 35.693 245.538 35.8805 244.045 35.9631C243.807 35.999 243.562 35.9535 243.354 35.8344C243.146 35.7153 242.987 35.5299 242.903 35.3096C240.911 30.7476 239.001 26.1608 237.028 21.5925C236.806 21.0747 236.545 20.3596 235.981 20.3596C235.613 20.3596 235.207 20.9144 234.972 21.3398C233.493 24.0647 232.028 26.7958 230.619 29.5577C228.874 32.9669 227.237 36.4255 225.486 39.8286C223.126 44.4092 220.638 48.9219 218.316 53.5148C215.549 58.9894 212.713 64.4392 210.162 70.0185C209.915 70.561 209.623 70.5919 209.236 70.3144C208.481 69.7781 207.72 69.2232 206.996 68.6437C205.727 67.6265 205.467 66.7572 206.888 65.4564C209.077 63.459 210.937 61.6341 212.827 59.5997C213.014 59.317 213.129 58.9953 213.164 58.6609C213.198 58.3266 213.15 57.9891 213.024 57.6762C212.39 56.393 211.572 55.2036 210.594 54.1437C208.513 51.9983 206.577 49.4583 204.014 48.0588C199.572 45.6422 194.902 43.4536 189.541 43.5029C189.173 43.5029 188.963 43.5461 188.799 43.244C188.729 43.0714 188.799 42.9789 188.944 42.8802C189.394 42.5575 189.865 42.2631 190.353 41.9987C195.493 39.2244 200.81 36.7831 205.981 34.0766C206.125 34.0109 206.253 33.9177 206.359 33.8027C206.465 33.6878 206.547 33.5532 206.598 33.4072C206.65 33.2611 206.67 33.1065 206.659 32.9526C206.648 32.7986 206.605 32.6483 206.533 32.5107C205.968 31.6661 205.378 30.8955 204.737 30.0447C202.942 27.437 201.089 24.9093 199.35 22.2645C197.701 19.7533 196.076 17.2277 194.477 14.6878C193.9 13.7815 192.777 13.874 191.996 14.8357C190.266 16.9565 188.5 19.0485 186.698 21.1117C184.16 23.9969 181.59 26.8328 179.046 29.6995C176.337 32.782 173.71 35.8645 170.924 38.873C168.97 40.9629 169.021 40.778 170.861 42.8618C171.457 43.5276 171.971 44.2057 172.536 44.853C173.405 45.8518 172.847 46.1662 172.003 46.5669C170.488 47.2395 169.027 48.0205 167.631 48.9034C163.488 51.4619 163.742 51.875 160.017 48.6568C156.293 45.4387 152.485 42.2083 148.736 38.9162C147.263 37.6277 145.931 36.1974 144.434 34.9459C143.913 34.5082 143.165 33.4232 142.39 34.8103C140.487 38.4106 138.583 42.0171 136.623 45.6175C136.464 45.9196 136.248 46.4806 136.026 46.4683C135.804 46.4559 135.868 45.8518 135.887 45.5374C136.071 42.4549 136.064 39.3046 136.261 36.1912C136.375 34.3417 135.569 34.4465 134.174 34.9212C131.071 35.9755 127.917 36.9002 124.783 37.8866L116.115 40.6177C112.651 41.7089 109.516 42.646 105.703 43.7557C103.914 44.2735 103.451 44.6311 103.539 46.2217C103.755 50.0255 103.888 53.8293 103.984 57.6269C104.085 61.8376 104.053 61.8437 108.063 60.7094C108.324 60.6416 108.571 60.5368 108.831 60.4566C109.846 60.1237 110.176 60.4566 110.202 61.6341C110.24 63.2185 110.284 64.6796 110.379 66.3627C110.475 68.0457 110.24 68.4403 108.52 67.9964C105.303 67.1518 102.848 66.3997 98.6536 66.7634C93.8821 67.195 90.9253 67.7498 85.1132 71.3317C85.0122 71.4181 84.8869 71.4731 84.7534 71.4896C84.62 71.506 84.4845 71.4833 84.3645 71.4241C84.2637 71.3169 84.1965 71.184 84.1706 71.0409C84.1448 70.8979 84.1614 70.7507 84.2185 70.6165C84.5525 69.488 84.7944 68.3357 84.9419 67.1703C85.8365 61.4184 83.1208 56.2089 79.3138 51.4557C77.8619 49.6467 76.1353 48.0627 74.1933 46.758C71.3824 44.8592 68.4827 42.8987 65.3101 41.7089C63.2932 40.9004 61.1743 40.3572 59.0094 40.0937C56.9531 39.7708 54.8742 39.6018 52.7912 39.5881C47.9817 39.5881 43.5401 39.5142 38.4323 40.2046C33.1849 40.9321 28.0517 42.6706 23.02 44.3475C19.342 45.6948 15.7797 47.3234 12.3666 49.2179C9.28921 50.8392 6.80193 52.5839 3.38827 54.5382C1.68144 55.5246 1.72585 56.5172 2.42381 57.7317C4.32734 61.0978 6.42123 64.4022 8.4707 67.7128C11.0658 71.9173 13.7752 76.0602 16.2752 80.314C17.1508 81.7998 17.9376 81.9601 19.4097 81.208C20.3931 80.7086 21.3639 80.3264 22.2776 79.8208C23.3563 79.2043 23.6291 79.5311 24.0162 80.388C25.5454 83.7479 27.1253 87.0894 28.6481 90.4554C30.8816 95.3874 33.0897 100.319 35.3105 105.251C37.7851 110.683 40.3104 116.096 42.785 121.533C44.8535 126.071 46.5921 129.948 48.6289 134.48C49.2634 135.947 50.3167 136.243 51.9854 135.713C54.3521 135.004 55.9257 134.529 58.2924 133.789C62.3914 132.519 66.5411 131.323 70.5575 129.918C73.9966 128.722 73.9712 128.604 73.4192 125.133C73.3701 124.818 73.3045 124.505 73.2225 124.196C71.3866 117.32 69.5529 110.449 67.7213 103.581C66.8203 100.196 65.2784 97.0581 69.6248 94.2346C70.2974 93.7784 70.7162 93.5873 70.9827 93.6797C71.2491 93.7722 71.3063 94.2962 71.3126 94.9559C71.3126 96.8917 71.3824 98.8028 71.5981 100.732C72.81 105.93 74.3519 108.322 78.1653 112.236C80.9572 115.031 84.5614 116.931 88.4951 117.68C91.399 118.178 94.357 118.311 97.2958 118.075C99.5737 117.867 101.809 117.342 103.933 116.515C107.449 115.315 110.668 113.413 113.381 110.929C113.799 110.541 114.231 110.886 114.282 111.281C114.593 113.71 114.758 115.596 115.119 118.062C115.278 119.19 115.519 120.115 117.403 119.912C119.884 119.671 118.749 119.813 119.941 119.647C125.589 118.882 131.229 118.025 136.889 117.378C138.323 117.211 138.793 116.829 138.761 115.467C138.704 110.042 138.761 104.623 138.704 99.2036C138.704 97.8226 139.808 97.5883 140.734 98.0322C143.907 99.5673 147.079 101.158 150.309 102.699C155.576 105.239 160.855 107.761 166.115 110.307C169.376 111.885 172.619 113.5 175.867 115.091C178.589 116.422 181.305 117.766 184.04 119.067C185.689 119.85 186.235 119.523 186.241 117.791C186.241 114.709 186.241 111.626 186.241 108.544C186.241 105.671 186.343 102.785 186.197 99.9125C186.115 98.1617 186.552 97.9212 188.5 97.5637C189.823 97.3342 191.13 97.0275 192.415 96.6451C193.443 96.3553 194.433 95.93 195.461 95.6464C196.317 95.4183 196.514 95.7265 196.095 96.5218C193.678 101.287 191.863 105.295 189.287 109.98C188.43 111.521 189.769 112.107 190.791 112.07C194.496 111.934 197.092 111.817 200.797 111.7C205.67 111.552 210.55 111.41 215.391 111.299C216.405 111.346 217.408 111.074 218.251 110.525C219.094 109.975 219.733 109.177 220.074 108.248C221.285 105.48 222.675 102.785 223.995 100.06C226.698 94.512 229.331 88.908 232.136 83.415C232.77 82.182 233.087 81.8368 233.938 81.806C235.314 81.7567 235.333 82.4225 235.841 83.5075C236.996 86.029 238.094 88.5813 239.21 91.1274L246.926 108.642C248.462 112.132 249.927 115.646 251.545 119.123C251.958 120.004 252.77 120.467 254.204 120.356C261.647 119.61 267.897 118.981 275.339 118.216C277.77 117.97 278.023 117.6 277.103 115.59C275.574 112.206 274.045 108.809 272.484 105.455C272.027 104.462 271.85 103.753 273.119 103.094C276.291 101.515 279.388 99.7954 282.452 98.026C282.775 97.8318 283.051 97.572 283.262 97.2645C283.472 96.957 283.611 96.609 283.67 96.2444C283.66 94.5192 283.49 92.7985 283.163 91.1028C282.167 85.7762 281.063 80.4682 280.079 75.1416C280.081 74.8537 280.15 74.5698 280.28 74.3114C280.411 74.053 280.601 73.8268 280.834 73.6497C282.243 72.5215 283.499 71.6276 285.187 70.4131C287.649 68.6376 288.937 67.9471 292.947 67.5957C293.582 67.534 293.905 67.8546 294.083 68.6314C294.356 70.9001 293.937 73.0332 293.626 75.2094C292.471 83.2239 291.285 90.5787 290.155 98.6364C290.047 99.407 290.155 100.393 291.386 100.529C298.765 101.312 305.136 101.762 312.534 102.416C312.754 102.452 312.98 102.442 313.195 102.386C313.411 102.329 313.611 102.228 313.782 102.089C313.954 101.95 314.092 101.777 314.188 101.581C314.283 101.385 314.334 101.171 314.336 100.954C314.527 99.3207 314.628 97.6623 314.812 96.0224C315.377 91.1398 316.005 86.2694 316.544 81.3868C317.109 76.2452 317.61 71.1036 318.105 65.9743C318.308 63.8535 318.321 61.7081 318.6 59.5935C319.19 55.1486 319.92 50.7221 320.504 46.271C320.612 45.2969 319.92 45.2476 319.501 45.149C318.81 44.9887 318.359 45.0195 319.121 44.3229C321.157 42.4549 321.475 39.8656 321.76 37.4612ZM302.401 47.9047C302.471 47.5471 302.515 47.3437 302.801 47.1834C303.041 47.0882 303.31 47.0882 303.55 47.1834C304.324 47.4608 305.142 47.6643 305.18 48.139C305.218 48.6137 304.609 48.6753 303.911 48.9281C302.883 49.3103 302.097 49.3658 302.401 47.9047ZM178.805 38.4538C182.859 33.9595 186.749 29.3234 190.715 24.749C190.875 24.5423 191.078 24.3714 191.312 24.2481C191.546 24.1248 191.805 24.0519 192.07 24.0343C192.336 24.0168 192.602 24.055 192.851 24.1464C193.1 24.2378 193.326 24.3803 193.513 24.5641L198.043 29.6379C198.161 29.7665 198.257 29.9121 198.329 30.0694C198.329 30.1064 198.329 30.1434 198.373 30.1742C198.54 30.5288 198.56 30.9322 198.429 31.3007C198.298 31.6693 198.026 31.9745 197.669 32.1532L180.918 40.6239C180.816 40.6776 180.707 40.719 180.594 40.7472C180.017 40.889 179.249 41.0308 178.951 40.7472C178.297 40.1861 177.866 39.5018 178.805 38.4538ZM59.644 93.8462C59.394 94.059 59.1998 94.3265 59.0773 94.6267C58.9548 94.9268 58.9076 95.251 58.9396 95.5724C60.1579 100.504 61.5158 105.393 62.7467 110.307C63.6921 114.006 64.5551 117.705 65.4434 121.404C65.6972 122.464 66.4459 124.388 65.6401 124.702C64.4282 125.17 64.2695 125.183 62.8292 125.658C60.1071 126.57 57.3724 127.458 54.6694 128.419C53.6922 128.771 53.2164 128.598 52.7659 127.636C49.5933 120.608 46.3319 113.623 43.1594 106.595C40.9576 101.719 38.9145 96.7746 36.6874 91.9166C34.9298 88.0943 32.9628 84.3644 31.1481 80.5668C30.2788 78.7605 29.5809 76.8678 28.7243 75.0553C28.0898 73.6682 27.6075 71.7385 26.4718 71.1775C25.5454 70.7275 23.7116 71.8618 22.3538 72.4599C20.0442 73.4709 19.4668 73.2675 18.2612 71.1529C16.0023 67.2011 13.7054 63.2617 11.2816 59.4024C10.6344 58.2989 10.6217 57.6207 11.7575 57.0042C14.5747 55.4691 17.3094 53.7491 20.2599 52.5161C29.5237 48.626 40.1899 45.9073 49.3205 45.9073C50.7608 45.8641 54.0285 45.9073 55.38 45.9073C59.5805 46.2587 59.8851 46.3203 63.1147 47.7568C69.7771 50.7714 75.7224 54.4581 77.664 61.8129C79.2376 67.7745 77.7973 73.4586 74.6945 78.7728C71.008 85.0364 65.7289 89.802 59.644 93.8462ZM113.501 102.372C109.06 108.248 103.159 111.62 95.6588 112.199C89.1804 112.686 83.6031 110.652 79.796 105.473C76.6234 101.096 75.9889 95.9608 77.2135 90.6774C78.6983 84.3275 82.3594 79.4694 87.8099 75.7211C93.0573 72.1146 98.8123 71.0234 105.037 72.0221C110.221 72.8298 113.996 75.7828 116.287 80.1969C117.606 82.7431 117.556 83.3904 118.19 86.4359C118.19 87.0215 118.368 87.9525 118.349 88.6306C118.438 93.766 116.61 98.2788 113.52 102.372H113.501ZM178.684 109.838C175.049 107.989 171.419 106.139 167.777 104.29C166.191 103.494 164.605 102.742 162.98 101.99C159.592 100.412 156.166 98.9076 152.828 97.2678C147.003 94.4442 141.217 91.5467 135.404 88.6923C132.949 87.4593 132.936 87.4963 132.936 90.0609V99.6968H132.968C132.968 103.106 132.917 106.521 132.968 109.931C132.968 111.268 132.524 111.62 131.064 111.78C128.272 112.042 125.503 112.498 122.778 113.143C121.153 113.543 120.614 113.389 120.519 111.823C120.443 110.535 120.398 109.437 120.297 108.124C120.094 105.319 120.297 102.496 121.477 99.931C125.049 92.2741 124.865 84.611 120.544 77.1576C120.169 76.6158 119.76 76.097 119.32 75.604C117.727 73.4956 116.782 71.905 116.718 69.439C116.515 64.2974 115.957 59.1743 115.601 54.0265C115.513 52.7504 115.094 52.6271 113.933 53.108C112.771 53.5888 111.287 54.5012 110.69 53.5395C110.146 52.3806 109.892 51.1131 109.948 49.8405C109.948 48.9651 110.703 48.6815 111.217 48.5212C116.737 46.9121 122.295 45.4387 127.816 43.8297C128.983 43.4906 129.218 43.8297 129.281 44.8592C129.605 50.1118 129.979 55.3397 130.347 60.6046C130.362 60.738 130.412 60.8653 130.493 60.9736C130.575 61.0819 130.684 61.1673 130.811 61.2211C131.048 61.3237 131.314 61.3467 131.567 61.2865C131.82 61.2262 132.045 61.0861 132.207 60.8882C132.568 60.4443 132.905 59.9819 133.247 59.5195L143.691 45.1983C145.151 43.1885 145.309 43.281 146.959 45.0257C149.04 47.2266 151.318 49.2548 153.551 51.3263C155.182 52.8367 156.921 54.2546 158.494 55.8206C158.616 56.0712 158.669 56.3478 158.649 56.6241C158.629 56.9004 158.536 57.1671 158.38 57.3988C154.535 61.3629 150.607 65.253 146.73 69.1924C144.463 71.494 142.234 73.8264 140.043 76.1897C139.745 76.5102 139.503 76.8678 140.265 77.1637C144.541 78.8098 148.869 80.3264 153.12 82.0279C155.798 83.0945 158.253 84.1857 160.017 86.9599C162.46 90.7699 166.299 93.4886 170.702 95.1162C173.38 96.1026 176.216 96.6944 178.951 97.5822C179.2 97.6787 179.422 97.8314 179.598 98.0275C179.775 98.2236 179.901 98.4577 179.966 98.7104C180.049 102.194 179.966 105.671 180.03 109.148C180.093 110.276 179.566 110.276 178.684 109.838ZM153.45 76.3376C152.181 75.9307 150.588 75.6718 150.379 74.6546C150.258 73.8963 150.937 73.2058 152.022 71.9297C152.415 71.4711 152.839 71.0386 153.291 70.635C153.408 70.5324 153.552 70.463 153.707 70.4342C153.862 70.4054 154.022 70.4184 154.17 70.4718C154.318 70.5252 154.448 70.6169 154.545 70.737C154.643 70.857 154.706 71.0009 154.725 71.1529L155.214 74.9628C155.512 76.8123 154.567 76.6829 153.45 76.3315V76.3376ZM183.323 91.4788C178.247 91.6083 173.316 90.4924 169.294 87.5764C162.949 82.9527 160.144 76.4794 161.254 68.7609C162.168 62.3924 165.696 57.5652 171.305 53.9649C178.45 49.3781 186.096 48.6199 194.147 50.3707C198.208 51.2461 201.501 53.5703 204.3 56.5357C204.447 56.7961 204.525 57.0879 204.527 57.3849C204.529 57.6819 204.455 57.9747 204.312 58.2372C201.819 60.882 199.179 63.3973 196.654 66.0051C193.183 69.5931 190.429 72.5215 187.003 76.1527C186.812 76.3561 185.835 77.2131 185.988 77.7063C186.14 78.1995 187.618 77.9529 188.005 77.8789C192.079 77.1329 196.083 75.2464 198.659 72.8113C199.991 71.5783 200.848 71.5783 202.06 72.7003C204.598 75.043 207.199 77.3179 209.674 79.6852C209.764 79.7718 209.836 79.875 209.885 79.9888C209.934 80.1025 209.959 80.2246 209.959 80.348C209.959 80.4713 209.934 80.5934 209.885 80.7071C209.836 80.8209 209.764 80.9241 209.674 81.0107C202.345 87.8785 193.469 91.2384 183.323 91.4727V91.4788ZM267.573 113.895C264.083 114.234 260.593 114.585 257.11 114.98C256.044 115.097 255.593 114.758 255.162 113.747C252.84 108.352 250.359 103.02 248.005 97.6315C245.651 92.2433 243.443 86.9229 241.133 81.6025C240.588 80.3784 239.965 79.1883 239.267 78.0392C239.006 77.663 238.607 77.3982 238.151 77.2994C235.784 76.8863 233.411 76.4548 231.025 76.2575C230.637 76.2897 230.263 76.4104 229.932 76.6096C229.602 76.8089 229.324 77.0811 229.122 77.4042C226 83.7664 222.999 90.1842 219.953 96.5773C218.684 99.2899 217.415 102.027 215.981 104.672C215.767 105.017 215.48 105.314 215.139 105.543C214.797 105.771 214.409 105.926 214.001 105.997C208.925 106.33 203.849 106.515 199.465 106.719C197.314 106.719 197.136 106.867 197.84 105.523C200.08 101.263 202.009 96.8485 204.357 92.6502C205.029 91.4542 206.406 90.3876 207.682 89.506L215.676 82.1081C216.108 81.6854 216.44 81.1768 216.649 80.6173C216.859 80.0578 216.941 79.4608 216.889 78.8676C216.838 78.2743 216.655 77.6989 216.352 77.1812C216.05 76.6635 215.635 76.2158 215.137 75.8691H215.093C213.766 74.9813 213.678 74.0812 214.338 72.7866C217.134 67.3902 219.925 61.9835 222.713 56.5665C225.467 51.2235 228.216 45.8805 230.962 40.5376C232.307 37.9298 233.62 35.3096 235.054 32.745C235.334 32.2395 235.841 32.3073 236.031 32.8745C236.882 34.7733 237.637 36.7091 238.455 38.6202C240.993 44.5201 243.531 50.4077 246.025 56.3138C248.316 61.7266 250.517 67.1826 252.846 72.5831C254.75 77.0589 256.837 81.4854 258.81 85.9427C259.515 87.5271 260.079 89.167 260.79 90.7575C263.455 96.8362 266.095 102.921 268.512 109.092C270.301 113.623 270.847 113.58 267.573 113.895ZM293.328 55.3274C290.936 58.1421 288.377 60.8182 285.663 63.3418C283.233 65.5674 280.454 67.4416 277.827 69.4698C277.772 69.5103 277.715 69.5474 277.655 69.5808C274.248 71.9605 274.426 71.9297 275.193 75.9307C276.278 81.5717 277.059 87.2681 277.985 92.9338C278.176 94.099 277.82 94.7833 276.412 95.3504L270.904 97.3171C270.475 97.4738 269.999 97.4616 269.578 97.2832C269.158 97.1048 268.825 96.7742 268.652 96.3615C266.253 90.5849 264.737 84.648 263.36 78.4091C262.307 74.3402 261.767 71.8988 260.371 66.1407C259.42 62.3863 258.385 58.6503 257.465 54.8835C257.18 53.7368 256.958 53.3854 255.847 54.3101C253.163 56.5419 253.208 56.474 252.357 53.0401C251.431 49.2795 250.314 45.5682 249.267 41.8384C249.045 41.0492 248.633 40.2971 250.016 40.0752C258.461 37.8681 264.819 36.5488 274.362 36.2899C281.05 36.6474 286.12 36.9557 290.771 39.6251C292.281 40.4456 293.582 41.5859 294.578 42.9616C295.573 44.3372 296.236 45.9129 296.519 47.5718C297.052 50.6913 295.225 53.1573 293.321 55.3582L293.328 55.3274ZM314.838 52.1401C313.463 65.4235 312.122 78.7132 310.815 92.009C310.701 93.1434 310.713 94.2839 310.605 95.4121C310.44 97.1999 310.479 97.9459 308.512 97.761C304.381 97.3479 300.828 96.9164 297.268 96.6759C295.58 96.565 295.269 95.9238 295.491 94.4195C296.405 88.2545 297.23 82.1265 298.029 75.9739C298.55 72.0653 298.962 68.1505 299.508 64.2604C299.724 62.7438 299.508 61.9424 297.655 62.3369C296.741 62.5342 296.183 62.8425 295.415 61.9979C295.104 60.882 295.358 60.6662 295.599 59.8031C295.72 59.3113 295.872 58.8274 296.056 58.3544C297.065 55.6973 298.385 54.6554 301.132 54.193C305.297 53.3615 309.415 52.3182 313.467 51.0673C314.812 50.7036 314.971 50.9009 314.831 52.1709L314.838 52.1401ZM310.339 44.2674C305.174 44.1132 302.382 41.6411 302.814 37.0667C303.182 33.1519 305.415 30.1187 309.368 30.242C313.131 30.3592 317.439 34.163 317.198 37.2454C316.906 40.9753 314.083 44.4955 310.333 44.2982L310.339 44.2674Z" fill="#2F749D"/>
<path d="M56.5539 63.2678C54.379 63.5291 52.247 64.0574 50.2088 64.8399C48.9017 65.3023 48.8129 66.0174 49.1809 67.1456C51.3383 73.7483 53.4448 80.3695 55.6149 86.966C55.856 87.6504 56.4588 87.6195 56.592 87.5332C60.0628 84.7775 63.7176 82.4348 65.9891 78.2857C69.2251 72.3242 65.7543 62.4787 56.5539 63.2678ZM59.2696 79.1982C59.0603 79.3276 58.5209 79.8147 58.2925 79.118C57.2202 75.8321 56.1161 72.5523 55.2595 69.2109C55.0819 68.5081 55.856 68.4588 56.2176 68.4156C59.625 68.021 61.8267 70.074 62.2963 73.8038C62.3124 74.88 62.0423 75.9421 61.5121 76.8872C60.9818 77.8322 60.2094 78.6282 59.2696 79.1982Z" fill="#2F749D"/>
<path d="M238.182 68.7979C235.644 68.502 233.684 68.2369 231.704 68.0704C230.289 67.9224 230.169 67.756 230.689 66.5045C232.066 63.1877 233.271 60.3395 234.661 56.9981C234.731 56.8255 234.883 56.3816 235.207 56.3816C235.53 56.3816 235.613 56.844 235.676 57.0351L238.531 67.7313C238.792 68.6191 238.69 68.7979 238.182 68.7979Z" fill="#2F749D"/>
<path d="M281.253 54.8402C278.791 57.3062 276.044 59.5564 273.423 61.8991C272.681 62.5711 272.338 62.5156 272.199 61.4429C271.843 58.7303 271.386 56.0239 271.037 53.3113C270.996 52.9638 271.085 52.6135 271.289 52.3254C271.494 52.0374 271.799 51.8312 272.148 51.7454C273.81 51.1782 275.054 50.6357 276.888 50.5432C277.947 50.5519 278.999 50.7246 280.003 51.0549C282.731 51.6899 283.214 52.8489 281.253 54.8402Z" fill="#2F749D"/>
<path d="M190.48 60.2717C188.756 59.532 186.974 58.9279 185.15 58.4654C184.614 58.3479 184.068 58.2736 183.519 58.2434C178.044 57.9167 173.126 61.8191 172.346 67.6204C172.057 69.4429 172.275 71.3072 172.978 73.0201C173.681 74.7329 174.843 76.2317 176.343 77.3611C176.575 77.4647 176.829 77.5094 177.083 77.4911C177.338 77.4727 177.583 77.3919 177.796 77.2563C178.868 76.2329 179.788 75.0615 180.791 73.9703C184.175 70.3083 187.559 66.6525 190.943 63.0028C191.952 61.8869 191.806 60.8636 190.48 60.2717ZM185.277 63.2617C182.847 65.9065 180.467 68.576 178.024 71.2146C177.809 71.4427 177.656 71.6769 177.301 71.6769C176.946 71.6769 176.857 71.5105 176.705 70.9002C176.49 70.2072 176.369 69.4902 176.343 68.7671C176.654 64.4023 180.391 61.3198 184.268 61.9363C184.566 61.9856 185.537 62.1212 185.651 62.4849C185.765 62.8487 185.486 63.0398 185.277 63.2617Z" fill="#2F749D"/>
<path d="M109.028 89.6787C106.877 93.2236 103.742 94.9498 98.9773 94.9066C92.2769 94.9066 87.994 89.1979 90.0244 82.4225C91.0333 79.075 95.0307 76.0294 98.603 76.313C98.9133 76.3491 99.2179 76.4216 99.5103 76.5288L98.825 77.1453C97.2959 78.4893 96.1791 80.0305 96.1728 82.3177C96.1728 84.944 99.4088 87.3915 102.194 87.4223C105.107 87.4593 107.607 84.8947 108.4 82.2931C108.52 81.8923 108.616 81.4855 108.73 81.0601C109.068 81.3592 109.37 81.6942 109.631 82.0588C110.824 84.5864 110.538 87.2127 109.028 89.6787Z" fill="#2F749D"/>
<path d="M256.735 115.621C255.466 115.621 254.94 114.838 254.572 113.994C253.303 111.028 251.945 108.026 250.644 105.122C249.559 102.712 248.474 100.301 247.421 97.8783C246.101 94.8698 244.8 91.7997 243.538 88.8281C242.548 86.4937 241.552 84.1612 240.549 81.8309C240.016 80.6298 239.405 79.4623 238.722 78.3353C238.554 78.1142 238.311 77.9571 238.036 77.8914L237.548 77.8051C235.39 77.4291 233.163 77.0407 230.974 76.8557C230.719 76.9005 230.476 76.9938 230.258 77.1303C230.04 77.2668 229.852 77.4438 229.705 77.651C227.446 82.2563 225.213 86.9725 223.049 91.5284C222.203 93.2916 221.357 95.0548 220.511 96.8179L219.731 98.464C218.716 100.603 217.669 102.816 216.526 104.943C216.263 105.381 215.903 105.757 215.471 106.043C215.04 106.329 214.549 106.517 214.033 106.596C210.226 106.848 206.336 107.015 202.904 107.163L199.477 107.317H198.367C197.866 107.317 197.237 107.317 196.939 106.848C196.641 106.38 196.939 105.862 197.25 105.208C198.195 103.408 199.103 101.546 199.985 99.7463C201.178 97.2803 202.415 94.7527 203.792 92.3483C204.534 91.0229 206.038 89.8823 207.269 89.0192L215.219 81.6644C215.587 81.2938 215.868 80.8499 216.042 80.3634C216.217 79.877 216.28 79.3596 216.228 78.847C216.182 78.3567 216.027 77.882 215.772 77.4561C215.518 77.0302 215.171 76.6633 214.756 76.381H214.712C213.189 75.3453 212.903 74.1678 213.747 72.5464C215.795 68.609 217.836 64.6655 219.87 60.7158L224.87 51.0244C226.71 47.4528 228.555 43.8792 230.403 40.3035L231.222 38.713C232.275 36.6662 233.36 34.5454 234.508 32.4925C234.599 32.2996 234.743 32.1352 234.925 32.0176C235.107 31.8999 235.318 31.8338 235.536 31.8267C235.796 31.8395 236.044 31.9334 236.244 32.0945C236.444 32.2556 236.586 32.4752 236.647 32.7206C237.142 33.8118 237.624 34.9893 238.093 36.1237C238.411 36.8881 238.728 37.6587 239.052 38.417C240.189 41.0926 241.334 43.7641 242.484 46.4315C243.868 49.6579 245.247 52.8842 246.621 56.1105C247.577 58.3669 248.523 60.6274 249.458 62.892C250.727 66.0053 252.084 69.2235 253.442 72.3738C254.603 75.0802 255.841 77.8175 257.04 80.4622C257.833 82.2131 258.626 83.9701 259.407 85.7271C259.775 86.5532 260.111 87.4102 260.441 88.2301C260.771 89.0501 261.075 89.7837 261.386 90.542C263.924 96.3987 266.665 102.638 269.115 108.901C269.375 109.561 269.603 110.134 269.806 110.603C270.492 112.267 270.809 113.026 270.409 113.685C270.009 114.345 269.223 114.388 267.643 114.542C264.762 114.82 260.968 115.196 257.192 115.627C257.044 115.636 256.896 115.636 256.748 115.627L256.735 115.621ZM231.05 67.3493C231.287 67.4005 231.526 67.4355 231.767 67.4541C233.208 67.5774 234.642 67.75 236.298 67.9473L237.986 68.1508C237.986 68.0891 237.948 68.009 237.922 67.9227L235.137 57.4915L234.857 58.1635C233.627 61.0919 232.522 63.712 231.279 66.7328C231.188 66.9327 231.111 67.1388 231.05 67.3493Z" fill="#231F20"/>
<path d="M182.542 92.1016C177.193 92.1016 172.612 90.7453 168.919 88.0697C162.352 83.3042 159.484 76.5967 160.632 68.6747C161.533 62.3864 165.011 57.2633 170.962 53.4472C175.561 50.4282 180.996 48.8374 186.546 48.8851C189.171 48.9017 191.786 49.1973 194.344 49.7667C198.151 50.5866 201.558 52.658 204.807 56.0981C205.068 56.48 205.207 56.9282 205.207 57.3866C205.207 57.845 205.068 58.2931 204.807 58.6751C203.373 60.1978 201.869 61.6959 200.416 63.1447C199.319 64.2421 198.221 65.3394 197.142 66.4491C194.008 69.6857 191.432 72.4107 188.468 75.561L187.498 76.5905L187.364 76.7262C187.131 76.941 186.919 77.1762 186.73 77.429H186.831C187.173 77.416 187.513 77.3727 187.847 77.2995H187.91C191.901 76.5659 195.765 74.7349 198.24 72.3675C198.514 72.0473 198.851 71.7832 199.231 71.5906C199.611 71.3979 200.027 71.2806 200.454 71.2455C200.849 71.2729 201.235 71.3757 201.589 71.5482C201.942 71.7206 202.258 71.9592 202.517 72.2504C203.557 73.2121 204.617 74.1677 205.689 75.1171C207.174 76.4549 208.709 77.842 210.188 79.2415C210.341 79.3865 210.462 79.5602 210.543 79.752C210.625 79.9438 210.666 80.1497 210.664 80.3573C210.664 80.5619 210.622 80.7645 210.541 80.9531C210.459 81.1416 210.339 81.3122 210.188 81.4547C202.853 88.2362 193.824 91.8242 183.361 92.0708H182.561L182.542 92.1016ZM182.878 58.8539C177.802 58.8539 173.665 62.5529 172.974 67.7129C172.706 69.4319 172.914 71.1893 173.578 72.8039C174.241 74.4185 175.336 75.832 176.749 76.8988H176.92C177.073 76.9036 177.224 76.8762 177.365 76.8186C177.999 76.2021 178.634 75.4623 179.268 74.7595C179.617 74.3588 179.96 73.9642 180.315 73.5758C183.699 69.9138 187.083 66.258 190.467 62.6083C190.63 62.474 190.76 62.3067 190.849 62.1182C190.938 61.9296 190.983 61.7245 190.981 61.5171C190.911 61.2027 190.543 60.9808 190.245 60.8513C189.017 60.2967 187.743 59.841 186.438 59.4888L185.017 59.0696C184.526 58.9654 184.027 58.8995 183.526 58.8724L182.878 58.8539Z" fill="#231F20"/>
<path d="M121.629 113.944C120.03 113.944 119.941 112.428 119.903 111.854C119.903 111.435 119.859 111.028 119.833 110.621C119.789 109.814 119.745 109.025 119.681 108.155C119.434 104.709 119.827 101.99 120.919 99.6601C124.459 92.0648 124.155 84.5928 120.011 77.4661C119.814 77.1519 119.587 76.8567 119.332 76.5845C119.161 76.3872 118.983 76.1838 118.825 75.968C117.137 73.7301 116.198 72.0286 116.103 69.4331C115.976 66.178 115.696 62.8613 115.43 59.6616C115.271 57.8121 115.119 55.9257 114.986 54.0515C114.984 53.8417 114.947 53.6336 114.878 53.435C114.642 53.4706 114.413 53.5413 114.199 53.6446L113.634 53.8912C112.98 54.2443 112.259 54.4645 111.515 54.5385C111.245 54.5495 110.977 54.4888 110.74 54.3627C110.503 54.2367 110.306 54.0502 110.17 53.8234C109.558 52.5656 109.273 51.1813 109.339 49.7915C109.339 48.4044 110.646 48.0098 111.084 47.8803C113.99 47.0357 116.946 46.2096 119.808 45.4144C122.441 44.6807 125.068 43.9471 127.689 43.1888C127.982 43.0948 128.288 43.0429 128.596 43.0347C129.865 43.0347 129.941 44.2677 129.973 44.7732C130.258 49.4586 130.607 54.218 130.918 58.817L131.039 60.5124C131.04 60.5383 131.048 60.5635 131.062 60.5853C131.077 60.607 131.097 60.6244 131.121 60.6357C131.19 60.6736 131.265 60.6967 131.344 60.7035C131.424 60.7035 131.504 60.6858 131.576 60.6516C131.649 60.6175 131.712 60.5678 131.762 60.5062C132.067 60.1302 132.359 59.7418 132.644 59.3534L143.228 44.841C144.015 43.756 144.541 43.084 145.322 43.084C146.102 43.084 146.591 43.6573 147.479 44.6067C149.148 46.3699 150.982 48.053 152.752 49.6867L154.021 50.8765C154.655 51.493 155.29 52.0356 155.924 52.6089C156.933 53.4967 157.98 54.4214 158.951 55.3893C159.484 55.9072 159.344 57.3066 158.843 57.8183C156.495 60.235 154.084 62.6702 151.743 65.019C150.22 66.5479 148.702 68.081 147.187 69.6181C145.017 71.8252 142.834 74.1062 140.519 76.5969C142.263 77.2688 144.015 77.9162 145.772 78.5697C148.266 79.4944 150.848 80.45 153.386 81.4549C156.242 82.5954 158.761 83.7667 160.582 86.615C162.822 90.1043 166.407 92.8416 170.956 94.5185C172.536 95.098 174.211 95.5542 175.835 95.9919C176.933 96.2878 178.069 96.6084 179.173 96.9413C179.548 97.0768 179.88 97.306 180.135 97.6058C180.39 97.9056 180.56 98.2654 180.626 98.649C180.677 100.801 180.677 102.965 180.677 105.11C180.677 106.435 180.677 107.767 180.677 109.093C180.705 109.331 180.684 109.572 180.614 109.802C180.544 110.031 180.427 110.245 180.271 110.43C180.167 110.531 180.043 110.61 179.907 110.663C179.77 110.716 179.624 110.742 179.477 110.739C179.082 110.715 178.699 110.599 178.361 110.399L174.344 108.359C172.052 107.192 169.757 106.029 167.46 104.869C165.893 104.08 164.287 103.322 162.707 102.588C161.438 102.003 160.226 101.442 158.995 100.881C156.857 99.9005 154.649 98.8894 152.492 97.8476C148.85 96.0782 145.163 94.2595 141.597 92.4902L135.068 89.2659C134.583 89.0122 134.083 88.7858 133.571 88.5878C133.525 89.0858 133.508 89.586 133.52 90.0858V99.5429C133.53 99.6042 133.53 99.6667 133.52 99.7279C133.52 100.702 133.52 101.678 133.52 102.656C133.52 105.048 133.52 107.527 133.552 109.949C133.596 111.799 132.644 112.255 131.096 112.415C128.354 112.663 125.634 113.1 122.955 113.722C122.524 113.849 122.079 113.923 121.629 113.944Z" fill="#231F20"/>
<path d="M53.9333 129.221C53.5462 129.195 53.1764 129.055 52.8737 128.819C52.5709 128.583 52.3495 128.263 52.2392 127.902C50.6529 124.392 49.0539 120.898 47.4423 117.421C45.8306 113.944 44.2274 110.432 42.6327 106.885C41.6175 104.641 40.6213 102.348 39.6632 100.104C38.5337 97.5023 37.3662 94.8082 36.167 92.1881C35.1518 89.9872 34.0541 87.7739 32.9945 85.6347C32.214 84.0688 31.4082 82.4536 30.6404 80.8507C30.1836 79.9013 29.7712 78.921 29.3714 77.9654C28.9717 77.0099 28.6227 76.1961 28.2166 75.333C28.0453 74.9754 27.893 74.5809 27.7344 74.1863C27.341 73.1876 26.8905 72.0594 26.256 71.7203C26.1876 71.6931 26.114 71.6804 26.0402 71.6833C25.1858 71.8349 24.3668 72.1357 23.6227 72.5711C23.2991 72.7314 22.9882 72.8793 22.69 73.0088C21.988 73.3614 21.2194 73.5711 20.4312 73.6253C19.1621 73.6253 18.4705 72.6204 17.7789 71.4121C15.7802 67.9104 13.3881 63.7798 10.7993 59.6986C10.578 59.4147 10.4173 59.0906 10.3269 58.7454C10.2364 58.4003 10.218 58.041 10.2726 57.6888C10.3683 57.4177 10.5193 57.1682 10.7167 56.9553C10.914 56.7424 11.1536 56.5704 11.4211 56.4496C12.1889 56.0304 12.9566 55.5927 13.7244 55.1612C15.7404 53.9638 17.8297 52.8871 19.9807 51.9369C30.2153 47.6645 40.5324 45.291 49.0539 45.291H49.3331C50.3991 45.291 52.6072 45.291 54.2188 45.291H55.3736C59.7327 45.6547 60.1071 45.7411 63.3748 47.196C69.9103 50.1552 76.2427 53.9775 78.2731 61.6591C79.7452 67.2445 78.73 73.1074 75.2402 79.0751C71.8646 84.8456 67.0296 89.7036 60.0119 94.3766C59.8684 94.5179 59.7553 94.6855 59.679 94.8697C59.6028 95.0538 59.5649 95.2509 59.5677 95.4494C60.2784 98.3099 61.0462 101.207 61.7885 104.013C62.3342 106.065 62.8736 108.125 63.4002 110.178C64.1235 113.007 64.8088 115.886 65.4687 118.667L66.1032 121.299C66.1476 121.49 66.2111 121.706 66.2745 121.916C66.6425 123.21 67.0994 124.826 65.9192 125.288C65.0626 125.621 64.7073 125.732 64.1108 125.904L63.0766 126.237L60.9764 126.94C58.9903 127.6 56.9345 128.284 54.9295 128.999C54.6125 129.124 54.2752 129.193 53.9333 129.203V129.221ZM57.5881 63.8723C57.2708 63.8723 56.9536 63.8723 56.6109 63.9154C54.4906 64.1726 52.4121 64.6883 50.4245 65.4505C49.5806 65.7464 49.4664 66.0239 49.79 66.9918C50.7502 69.9263 51.7019 72.8629 52.6452 75.8015C53.8297 79.4759 55.0225 83.1461 56.2239 86.8122C56.2427 86.8781 56.2827 86.9364 56.3381 86.9787C56.8267 86.5903 57.3597 86.1834 57.8863 85.7457C60.8177 83.4893 63.5969 81.3624 65.4306 77.9778C66.2305 76.397 66.6117 74.6472 66.5397 72.8871C66.4677 71.127 65.9447 69.4121 65.0182 67.898C64.2667 66.6363 63.1799 65.594 61.8717 64.8804C60.5634 64.1667 59.0817 63.8079 57.5817 63.8415L57.5881 63.8723Z" fill="#231F20"/>
<path d="M93.8439 112.884C87.6955 112.884 82.6639 110.418 79.2946 105.831C76.2045 101.589 75.2718 96.3061 76.6106 90.5542C78.0827 84.2474 81.636 79.2352 87.4608 75.228C91.3543 72.5004 96.0362 71.0395 100.836 71.0543C102.284 71.0578 103.729 71.1733 105.157 71.3995C110.354 72.2072 114.408 75.1479 116.87 79.9072C117.729 81.4664 118.304 83.1578 118.571 84.907C118.653 85.3139 118.748 85.7701 118.856 86.2942C118.861 86.3352 118.861 86.3765 118.856 86.4175C118.856 86.6517 118.888 86.9661 118.926 87.3052C118.985 87.7448 119.014 88.1875 119.015 88.6307C119.053 93.612 117.416 98.2357 114.015 102.73C109.383 108.852 103.228 112.243 95.7094 112.81C95.0749 112.859 94.4404 112.884 93.8059 112.884H93.8439ZM98.1332 76.9234C95.0495 76.9234 91.547 79.5805 90.6333 82.6075C89.6942 85.7331 90.1511 88.8095 91.9023 91.0474C92.7326 92.0965 93.8076 92.9388 95.0388 93.5047C96.27 94.0707 97.6221 94.3441 98.9835 94.3025H99.1675C103.495 94.3025 106.458 92.7366 108.495 89.3705C109.929 87.0216 110.132 84.605 109.091 82.3856L109.059 82.3424L109.021 82.4657C108.197 85.166 105.551 88.0142 102.27 88.0142H102.156C99.1548 87.9834 95.4937 85.3324 95.5064 82.2931C95.5187 81.265 95.7579 80.2515 96.2078 79.3209C96.6577 78.3904 97.3078 77.5644 98.1142 76.8987L98.1332 76.9234Z" fill="#231F20"/>
<path d="M179.509 41.5365C179.153 41.5598 178.801 41.4494 178.526 41.2282C177.403 40.2233 177.339 39.1568 178.329 38.0533C181.121 34.9708 183.881 31.7403 186.578 28.627C187.8 27.2008 189.027 25.7767 190.258 24.3547C190.312 24.285 190.372 24.2191 190.436 24.1574C190.655 23.9072 190.929 23.7069 191.237 23.5706C191.545 23.4343 191.88 23.3652 192.219 23.3683C192.56 23.3686 192.897 23.4397 193.208 23.5769C193.519 23.714 193.796 23.914 194.021 24.1635L198.526 29.262C198.687 29.4463 198.818 29.6544 198.913 29.8785L198.361 30.1867L198.944 29.9401V29.9956C199.16 30.4837 199.179 31.0325 198.998 31.5337C198.817 32.0348 198.449 32.4517 197.967 32.7021L181.216 41.1727C181.076 41.2471 180.926 41.305 180.772 41.3454C180.361 41.4592 179.937 41.5234 179.509 41.5365Z" fill="#231F20"/>
<path d="M270.301 98.0633C269.824 98.0651 269.358 97.928 268.962 97.6698C268.566 97.4115 268.259 97.044 268.08 96.6145C265.542 90.5174 264.026 84.3339 262.757 78.5573C262.072 75.9002 261.602 73.952 260.961 71.2518C260.631 69.8585 260.251 68.2741 259.775 66.3198C259.381 64.7662 258.969 63.2065 258.556 61.6467C257.992 59.4951 257.402 57.2696 256.869 55.0625C256.825 54.8726 256.77 54.6853 256.704 54.5015C256.555 54.5965 256.413 54.7016 256.279 54.8159C254.946 55.9256 254.274 56.4866 253.601 56.4866C252.567 56.4866 252.332 55.4571 251.805 53.4041L251.761 53.2192C251.082 50.4758 250.295 47.7077 249.527 45.0321C249.24 44.0334 248.956 43.0346 248.677 42.0359L248.614 41.814C248.494 41.5627 248.432 41.2893 248.432 41.0125C248.432 40.7358 248.494 40.4623 248.614 40.2111C248.767 40.0083 248.964 39.8404 249.191 39.719C249.417 39.5976 249.669 39.5257 249.927 39.5083C258.766 37.1964 264.997 35.9696 274.362 35.7168C281.031 36.0682 286.259 36.3333 291.113 39.1384C292.704 40.0047 294.074 41.2074 295.122 42.6577C296.17 44.1079 296.868 45.7685 297.166 47.5166C297.757 50.9012 295.758 53.5583 293.835 55.7777C291.42 58.593 288.835 61.2671 286.094 63.786C284.353 65.3149 282.532 66.7553 280.637 68.1015C279.825 68.718 279.013 69.3036 278.22 69.9201C278.164 69.9637 278.105 70.0029 278.042 70.0373C275.098 72.0902 275.098 72.0902 275.714 75.259L275.815 75.783C276.551 79.593 277.154 83.4893 277.719 87.2622C278.004 89.1117 278.29 90.9612 278.594 92.8107C278.842 94.3335 278.258 95.2767 276.634 95.8932L271.107 97.866C270.839 97.9632 270.556 98.0133 270.27 98.014L270.301 98.0633ZM276.9 51.1601C275.589 51.2583 274.304 51.5622 273.093 52.0602L272.325 52.3253C272.115 52.3656 271.927 52.4809 271.799 52.6485C271.671 52.816 271.612 53.0239 271.634 53.2315C271.811 54.6248 272.027 56.0428 272.23 57.4175C272.433 58.7923 272.624 60.0438 272.795 61.3631C272.795 61.4371 272.795 61.5049 272.795 61.5604L272.928 61.4494C273.74 60.7281 274.559 60.013 275.377 59.304C277.179 57.7381 279.045 56.1229 280.733 54.4152C281.754 53.3795 281.799 52.8678 281.735 52.652C281.672 52.4362 281.329 52.0355 279.8 51.6533L279.216 51.4992C278.467 51.2693 277.686 51.1549 276.9 51.1601Z" fill="#231F20"/>
<path d="M309.006 98.4332C308.829 98.4332 308.638 98.4332 308.416 98.4332L304.901 98.0695C302.223 97.7859 299.692 97.5208 297.185 97.3482C296.813 97.3654 296.44 97.305 296.093 97.171C295.746 97.037 295.433 96.8326 295.174 96.5714C294.966 96.2499 294.827 95.8905 294.767 95.5152C294.707 95.1399 294.727 94.7567 294.825 94.389C295.726 88.3535 296.513 82.4721 297.363 75.9495C297.598 74.2048 297.807 72.454 297.998 70.7093C298.251 68.5824 298.518 66.3938 298.822 64.2176C298.949 63.3236 298.822 63.0585 298.778 62.9846C298.668 62.9126 298.535 62.8819 298.404 62.8982C298.177 62.9042 297.952 62.9331 297.731 62.9846L297.382 63.0647C297.075 63.1546 296.757 63.2064 296.437 63.2188C296.135 63.2121 295.838 63.1393 295.569 63.0059C295.3 62.8725 295.065 62.6818 294.882 62.4482C294.819 62.377 294.773 62.2926 294.749 62.2016C294.508 61.5261 294.524 60.7892 294.793 60.124C294.838 59.9945 294.882 59.8527 294.933 59.6801C295.059 59.1695 295.218 58.6671 295.409 58.1759C296.481 55.3461 297.947 54.1501 300.973 53.6199C304.615 52.9126 308.216 52.0174 311.76 50.9382L313.251 50.5128C313.593 50.3993 313.95 50.3329 314.311 50.3155C314.466 50.308 314.622 50.3333 314.766 50.3897C314.911 50.4461 315.041 50.5323 315.148 50.6423C315.304 50.8784 315.407 51.1433 315.452 51.4203C315.497 51.6972 315.482 51.9802 315.409 52.2513C314.14 64.2545 312.947 76.4674 311.766 88.2795L311.386 92.1203C311.329 92.6875 311.303 93.267 311.278 93.8342C311.252 94.4013 311.227 94.9562 311.176 95.5234V95.7823C311.081 97.1941 310.973 98.4332 309.006 98.4332Z" fill="#231F20"/>
<path d="M310.637 44.9211H310.276C307.3 44.8348 305.079 44.0086 303.683 42.4551C302.452 41.1049 301.938 39.2801 302.154 37.0237C302.585 32.4678 305.25 29.6257 309.133 29.6257H309.387C311.602 29.6935 314.171 30.9759 315.935 32.887C317.268 34.3296 317.94 35.8955 317.839 37.295C317.534 41.0556 314.762 44.9211 310.637 44.9211Z" fill="#231F20"/>
<path d="M268.512 109.111C266.094 102.946 263.436 96.8548 260.79 90.7761C260.092 89.1856 259.521 87.5457 258.81 85.9613C256.837 81.504 254.768 77.0775 252.846 72.6018C250.517 67.2012 248.315 61.7452 246.025 56.3324C243.487 50.4263 240.949 44.5387 238.455 38.6388C237.637 36.7277 236.882 34.7919 236.031 32.8931C235.841 32.3259 235.333 32.2766 235.054 32.7636C233.62 35.3282 232.307 37.9484 230.962 40.5562C228.204 45.8991 225.454 51.2421 222.713 56.5851C219.921 61.9939 217.125 67.4026 214.325 72.8114C213.69 74.0444 213.754 74.9753 215.08 75.8939H215.124C215.622 76.2406 216.037 76.6883 216.34 77.206C216.642 77.7237 216.825 78.2991 216.877 78.8923C216.928 79.4856 216.846 80.0826 216.637 80.6421C216.427 81.2016 216.095 81.7102 215.664 82.1328L207.669 89.5308C206.4 90.4124 205.016 91.4789 204.344 92.6749C201.996 96.8733 200.067 101.306 197.827 105.547C197.123 106.891 197.301 106.78 199.452 106.743C203.824 106.54 208.912 106.355 213.988 106.022C214.397 105.951 214.784 105.796 215.126 105.568C215.467 105.339 215.755 105.042 215.968 104.697C217.396 102.052 218.646 99.3146 219.94 96.602C222.986 90.209 225.987 83.7912 229.109 77.4289C229.311 77.1058 229.589 76.8336 229.919 76.6344C230.25 76.4351 230.625 76.3145 231.012 76.2822C233.398 76.4795 235.771 76.8988 238.138 77.3241C238.594 77.423 238.993 77.6877 239.255 78.0639C239.952 79.2131 240.575 80.4032 241.12 81.6273C243.43 86.9662 245.657 92.342 247.992 97.6563C250.327 102.97 252.827 108.377 255.149 113.772C255.581 114.776 256.031 115.116 257.097 115.005C260.58 114.61 264.077 114.259 267.56 113.92C270.847 113.58 270.301 113.624 268.512 109.111ZM238.182 68.798C235.644 68.502 233.684 68.2369 231.704 68.0705C230.289 67.9225 230.168 67.7561 230.689 66.5046C232.066 63.1878 233.271 60.3396 234.661 56.9982C234.731 56.8256 234.883 56.3817 235.206 56.3817C235.53 56.3817 235.613 56.8441 235.676 57.0352L238.531 67.7314C238.791 68.6192 238.69 68.798 238.182 68.798Z" fill="#7EBC59"/>
<path d="M209.725 79.7101C207.218 77.3427 204.648 75.0678 202.11 72.7251C200.898 71.6031 200.042 71.5785 198.709 72.8361C196.133 75.3021 192.13 77.1516 188.056 77.9037C187.669 77.9777 186.254 78.2798 186.038 77.7311C185.823 77.1824 186.863 76.381 187.053 76.1775C190.48 72.5464 193.234 69.618 196.704 66.03C199.242 63.4222 201.869 60.9069 204.363 58.2621C204.516 57.9953 204.596 57.695 204.596 57.3897C204.596 57.0844 204.516 56.7842 204.363 56.5174C201.584 53.5705 198.291 51.2463 194.211 50.3524C186.133 48.6015 178.488 49.3598 171.368 53.9466C165.753 57.5469 162.231 62.3741 161.318 68.7426C160.207 76.4365 162.986 82.922 169.357 87.5581C173.38 90.4741 178.285 91.59 183.386 91.4605C193.538 91.2201 202.421 87.8602 209.788 81.017C209.956 80.8349 210.044 80.5955 210.032 80.3509C210.021 80.1063 209.91 79.876 209.725 79.7101ZM180.785 73.9766C179.782 75.0678 178.881 76.2392 177.79 77.2626C177.576 77.3982 177.331 77.479 177.077 77.4974C176.823 77.5157 176.568 77.471 176.337 77.3674C174.836 76.238 173.674 74.7392 172.972 73.0264C172.269 71.3135 172.05 69.4492 172.339 67.6267C173.12 61.8254 178.05 57.923 183.513 58.2497C184.062 58.2799 184.607 58.3542 185.144 58.4717C186.967 58.9343 188.749 59.5383 190.473 60.278C191.806 60.8945 191.946 61.8933 190.905 63.0091C187.525 66.6588 184.152 70.3146 180.785 73.9766Z" fill="#7EBC59"/>
<path d="M180.074 109.08C180.074 110.276 179.541 110.276 178.684 109.838C175.049 107.989 171.419 106.139 167.777 104.29C166.191 103.495 164.605 102.742 162.98 101.99C159.592 100.412 156.166 98.9078 152.828 97.2679C147.003 94.4444 141.217 91.5468 135.404 88.6925C132.949 87.4595 132.936 87.4964 132.936 90.0611V99.697H132.968C132.968 103.106 132.917 106.522 132.968 109.931C132.968 111.269 132.524 111.62 131.064 111.78C128.272 112.043 125.503 112.498 122.778 113.143C121.153 113.544 120.614 113.389 120.519 111.823C120.443 110.535 120.398 109.438 120.297 108.124C120.094 105.319 120.297 102.496 121.477 99.9312C125.049 92.2743 124.865 84.6112 120.544 77.1578C120.169 76.616 119.76 76.0972 119.32 75.6042C117.727 73.4958 116.782 71.9052 116.718 69.4392C116.515 64.2976 115.957 59.1745 115.601 54.0267C115.512 52.7506 115.094 52.6273 113.933 53.1081C112.771 53.589 111.287 54.5014 110.69 53.5397C110.146 52.3808 109.892 51.1133 109.948 49.8407C109.948 48.9653 110.703 48.6817 111.217 48.5214C116.737 46.9123 122.295 45.4389 127.816 43.8298C128.983 43.4908 129.218 43.8298 129.281 44.8594C129.605 50.112 129.979 55.3399 130.347 60.6048C130.362 60.7381 130.412 60.8655 130.493 60.9738C130.575 61.0821 130.684 61.1675 130.811 61.2213C131.048 61.3239 131.314 61.3469 131.567 61.2867C131.82 61.2264 132.045 61.0863 132.206 60.8884C132.568 60.4445 132.904 59.9821 133.247 59.5197L143.691 45.1985C145.15 43.1887 145.309 43.2812 146.959 45.0258C149.04 47.2267 151.318 49.255 153.551 51.3265C155.182 52.8369 156.921 54.2548 158.494 55.8207C158.616 56.0714 158.669 56.348 158.649 56.6243C158.629 56.9006 158.536 57.1673 158.38 57.399C154.535 61.3631 150.607 65.2532 146.73 69.1926C144.463 71.4942 142.234 73.8266 140.043 76.1899C139.744 76.5104 139.503 76.868 140.265 77.1639C144.541 78.81 148.869 80.3266 153.12 82.0281C155.798 83.0946 158.253 84.1858 160.017 86.9601C162.46 90.7701 166.299 93.4888 170.702 95.1164C173.38 96.1028 176.216 96.6946 178.951 97.5824C179.2 97.6789 179.422 97.8316 179.598 98.0277C179.775 98.2238 179.901 98.4579 179.966 98.7106C180.099 102.12 180.049 105.603 180.074 109.08Z" fill="#7EBC59"/>
<path d="M77.664 61.7885C75.7224 54.4336 69.796 50.7408 63.1146 47.757C59.885 46.3205 59.5804 46.2589 55.38 45.9075C54.0285 45.9075 50.7353 45.9075 49.3267 45.963C40.1898 45.9075 29.5237 48.6262 20.2535 52.504C17.303 53.737 14.5429 55.457 11.751 56.9921C10.6216 57.6086 10.6279 58.3053 11.3323 59.4211C13.7561 63.2804 16.053 67.2198 18.3119 71.1716C19.5174 73.2862 20.0948 73.4896 22.4045 72.4786C23.7623 71.8621 25.577 70.7462 26.5224 71.1962C27.6582 71.7573 28.1214 73.6622 28.7749 75.074C29.6315 76.8865 30.3295 78.773 31.1988 80.5855C33.0135 84.3832 35.0058 88.113 36.738 91.9353C38.9652 96.7933 41.0083 101.738 43.2101 106.614C46.3826 113.642 49.644 120.627 52.8165 127.655C53.2543 128.617 53.7302 128.79 54.7201 128.438C57.4231 127.476 60.1578 126.589 62.8799 125.676C64.3202 125.202 64.4788 125.189 65.6908 124.721C66.4966 124.406 65.7479 122.483 65.4941 121.422C64.6057 117.723 63.7428 114.024 62.7974 110.325C61.5284 105.393 60.1832 100.517 58.9903 95.5911C58.9583 95.2697 59.0055 94.9455 59.128 94.6454C59.2504 94.3452 59.4447 94.0777 59.6946 93.8649C65.7669 89.8207 71.046 85.0613 74.7262 78.7668C77.7909 73.4341 79.2375 67.7439 77.664 61.7885ZM65.989 78.2613C63.7174 82.435 60.0626 84.7777 56.5919 87.5088C56.4586 87.5951 55.8558 87.6259 55.6147 86.9416C53.4447 80.3451 51.3381 73.7239 49.1808 67.1212C48.8128 65.993 48.9016 65.2717 50.2087 64.8155C52.2468 64.0329 54.3789 63.5047 56.5538 63.2434C65.7542 62.479 69.225 72.3244 65.989 78.2613Z" fill="#7EBC59"/>
<path d="M118.235 86.4238C117.6 83.3783 117.6 82.7248 116.331 80.1848C114.04 75.7707 110.265 72.8177 105.081 72.0101C98.8567 71.036 93.1017 72.1272 87.8543 75.7091C82.4038 79.4574 78.7427 84.34 77.2579 90.6653C76.0333 95.9364 76.6234 101.072 79.8404 105.461C83.6475 110.64 89.2248 112.674 95.7031 112.187C103.203 111.626 109.104 108.236 113.546 102.36C116.642 98.2668 118.463 93.7293 118.425 88.6062C118.419 87.9342 118.235 87.0033 118.235 86.4238ZM109.028 89.6789C106.877 93.2238 103.742 94.95 98.9772 94.9068C92.2768 94.9068 87.9939 89.1981 90.0243 82.4227C91.0332 79.0752 95.0306 76.0296 98.6029 76.3132C98.9132 76.3493 99.2178 76.4218 99.5102 76.529L98.8249 77.1455C97.2958 78.4895 96.179 80.0307 96.1727 82.3179C96.1727 84.9442 99.4087 87.3917 102.194 87.4225C105.107 87.4595 107.607 84.8949 108.4 82.2933C108.52 81.8925 108.615 81.4857 108.73 81.0603C109.068 81.3594 109.37 81.6944 109.631 82.059C110.824 84.5866 110.538 87.2129 109.028 89.6789Z" fill="#7EBC59"/>
<path d="M197.669 32.1596L180.918 40.6303C180.816 40.684 180.707 40.7254 180.594 40.7536C180.017 40.8954 179.249 41.0371 178.951 40.7536C178.316 40.174 177.86 39.5206 178.805 38.4417C182.86 33.9474 186.749 29.3113 190.715 24.7369C190.875 24.5302 191.078 24.3593 191.312 24.236C191.546 24.1127 191.805 24.0398 192.07 24.0222C192.336 24.0047 192.602 24.0429 192.851 24.1343C193.1 24.2257 193.326 24.3682 193.513 24.552L198.043 29.6258C198.161 29.7544 198.257 29.9 198.329 30.0573C198.329 30.0943 198.329 30.1313 198.373 30.1621C198.546 30.5187 198.569 30.9266 198.438 31.2995C198.306 31.6723 198.031 31.9808 197.669 32.1596Z" fill="#7EBC59"/>
<path d="M296.519 47.5905C296.236 45.9317 295.573 44.356 294.578 42.9803C293.582 41.6046 292.281 40.4643 290.771 39.6439C286.12 36.9744 281.05 36.6662 274.362 36.3086C264.845 36.5675 258.461 37.8868 250.016 40.0939C248.658 40.3158 249.045 41.068 249.267 41.8571C250.314 45.5561 251.431 49.2982 252.357 53.0589C253.208 56.4928 253.163 56.5606 255.847 54.3289C256.958 53.4041 257.18 53.7555 257.465 54.9022C258.385 58.669 259.419 62.405 260.371 66.1595C261.767 71.9176 262.306 74.3589 263.36 78.4278C264.737 84.6914 266.253 90.6036 268.652 96.3802C268.825 96.7929 269.158 97.1235 269.578 97.3019C269.999 97.4804 270.474 97.4925 270.904 97.3358L276.412 95.3692C277.82 94.8143 278.176 94.1362 277.985 92.9525C277.059 87.2869 276.278 81.5904 275.193 75.9495C274.426 71.9484 274.248 71.9792 277.655 69.5995C277.715 69.5661 277.772 69.5291 277.827 69.4886C280.453 67.4603 283.233 65.5861 285.663 63.3606C288.377 60.8369 290.936 58.1608 293.328 55.3461C295.225 53.1575 297.052 50.6915 296.519 47.5905ZM281.253 54.8405C278.791 57.3065 276.044 59.5568 273.423 61.8995C272.681 62.5714 272.338 62.5159 272.198 61.4432C271.843 58.7306 271.386 56.0242 271.037 53.3116C270.996 52.9642 271.085 52.6138 271.289 52.3258C271.494 52.0377 271.799 51.8316 272.148 51.7457C273.81 51.1785 275.054 50.636 276.888 50.5435C277.947 50.5522 278.999 50.7249 280.003 51.0552C282.731 51.6902 283.214 52.8493 281.253 54.8405Z" fill="#7EBC59"/>
<path d="M314.831 52.1711C313.457 65.4546 312.116 78.7442 310.809 92.04C310.694 93.1744 310.707 94.3149 310.599 95.4431C310.434 97.231 310.472 97.9769 308.505 97.792C304.375 97.3789 300.821 96.9474 297.262 96.7069C295.574 96.596 295.263 95.9548 295.485 94.4505C296.399 88.2856 297.224 82.1576 298.023 76.0049C298.543 72.0963 298.956 68.1815 299.502 64.2914C299.717 62.7748 299.502 61.9734 297.649 62.3679C296.735 62.5652 296.177 62.8735 295.409 62.0289C295.098 60.913 295.352 60.6972 295.593 59.8341C295.713 59.3423 295.866 58.8584 296.05 58.3854C297.059 55.7283 298.378 54.6864 301.126 54.224C305.291 53.3925 309.408 52.3492 313.461 51.0984C314.812 50.7038 314.971 50.9011 314.831 52.1711Z" fill="#7EBC59"/>
<path d="M317.198 37.2766C316.906 40.9756 314.083 44.4958 310.339 44.2985C305.174 44.1444 302.382 41.6722 302.814 37.0978C303.182 33.183 305.415 30.1499 309.368 30.2732C313.124 30.3903 317.433 34.1941 317.198 37.2766Z" fill="#7EBC59"/>
</g>
<defs>
<clipPath id="clip0_227_72">
<rect width="324" height="126" fill="white" transform="translate(0 12)"/>
</clipPath>
</defs>
</svg>

