<svg width="70" height="26" viewBox="0 0 70 26" fill="none" xmlns="http://www.w3.org/2000/svg">
<path d="M36.1397 7.77495L39.47 7.5597C39.546 8.10423 39.6853 8.50942 39.9132 8.80068C40.2805 9.25651 40.787 9.48445 41.4581 9.48445C41.9519 9.48445 42.3445 9.37048 42.6104 9.12991C42.8636 8.93997 43.0156 8.63607 43.0156 8.31948C43.0156 8.01558 42.8763 7.72431 42.6358 7.53438C42.3825 7.30644 41.7873 7.0785 40.8503 6.87593C39.3181 6.53402 38.2164 6.07814 37.5706 5.49566C36.9248 4.95118 36.5576 4.15341 36.5829 3.305C36.5829 2.72251 36.7602 2.14002 37.0894 1.65883C37.4693 1.11433 37.9885 0.683794 38.609 0.443199C39.2801 0.151956 40.2171 0 41.3948 0C42.8383 0 43.94 0.265921 44.6997 0.810424C45.4595 1.34226 45.9154 2.20333 46.0547 3.38098L42.7624 3.57092C42.6737 3.06441 42.4964 2.69718 42.2052 2.45659C41.9139 2.216 41.5341 2.10203 41.0402 2.10203C40.635 2.10203 40.3311 2.19067 40.1285 2.35529C39.9385 2.50724 39.8119 2.73517 39.8246 2.98843C39.8246 3.17837 39.9259 3.35565 40.0778 3.46961C40.2424 3.62157 40.635 3.76086 41.2555 3.88749C42.7877 4.21672 43.8767 4.54594 44.5478 4.88785C45.219 5.22976 45.7002 5.64764 45.9914 6.14147C46.2953 6.64799 46.4473 7.23048 46.4346 7.82565C46.4346 8.53474 46.232 9.24388 45.8268 9.83899C45.4089 10.4595 44.8264 10.9407 44.1426 11.232C43.4208 11.5485 42.5091 11.7131 41.4201 11.7131C39.4953 11.7131 38.1658 11.3459 37.4187 10.5988C36.6715 9.85168 36.2283 8.91465 36.1397 7.77495ZM0.797758 11.5232V0.202609H6.63531C7.71168 0.202609 8.54743 0.291247 9.11723 0.48119C9.67439 0.658468 10.1682 1.02569 10.4975 1.51954C10.8647 2.06404 11.042 2.69718 11.0293 3.35565C11.0673 4.46998 10.4975 5.53367 9.52246 6.09083C9.14255 6.30608 8.72468 6.45806 8.29417 6.53402C8.61071 6.62267 8.92729 6.7746 9.20588 6.9519C9.42113 7.12919 9.59843 7.33176 9.76304 7.54707C9.95297 7.76232 10.1176 8.00289 10.2569 8.25616L11.9537 11.5359H7.97758L6.10347 8.05354C5.8629 7.61034 5.66028 7.31913 5.47035 7.17984C5.21709 7.00254 4.91318 6.91389 4.60927 6.91389H4.30536V11.5105H0.797758V11.5232ZM4.30536 4.78657H5.78694C6.10347 4.76125 6.40737 4.71056 6.71128 4.63459C6.93922 4.59659 7.14184 4.46998 7.28113 4.28004C7.62304 3.82418 7.57239 3.17837 7.15452 2.78582C6.92658 2.59588 6.48339 2.49458 5.85021 2.49458H4.30536V4.78657ZM0 21.2229L3.33032 21.0076C3.4063 21.5522 3.54559 21.9573 3.77352 22.2486C4.12808 22.7044 4.64726 22.9451 5.31837 22.9451C5.81226 22.9451 6.20481 22.8311 6.4707 22.5905C6.72396 22.3879 6.87589 22.0966 6.87589 21.78C6.87589 21.4761 6.7366 21.1849 6.49602 20.995C6.24276 20.7671 5.64764 20.5391 4.69791 20.3365C3.16571 19.9946 2.06404 19.5388 1.41824 18.9563C0.772432 18.4117 0.40521 17.614 0.430536 16.7656C0.430536 16.1831 0.607815 15.6006 0.937049 15.1194C1.31693 14.5749 1.83611 14.1444 2.45659 13.9038C3.12772 13.6125 4.06477 13.4606 5.24241 13.4606C6.68596 13.4606 7.78765 13.7265 8.54743 14.271C9.30716 14.8155 9.75035 15.6639 9.88964 16.8415L6.59731 17.0315C6.50871 16.525 6.33141 16.1578 6.04014 15.9172C5.76156 15.6766 5.36906 15.5626 4.87519 15.5753C4.46998 15.5753 4.16607 15.6639 3.96346 15.8412C3.76086 15.9932 3.6469 16.2211 3.65956 16.4744C3.65956 16.6643 3.76086 16.8415 3.91281 16.9555C4.07743 17.1075 4.46998 17.2468 5.09046 17.3734C6.62268 17.7027 7.71168 18.0319 8.38277 18.3737C9.0539 18.7157 9.5351 19.1335 9.82637 19.6274C10.1303 20.1339 10.2822 20.7164 10.2822 21.2989C10.2822 22.008 10.0669 22.7044 9.67439 23.2996C9.25652 23.9201 8.67403 24.4013 7.99027 24.6925C7.26844 25.0091 6.35673 25.1737 5.26773 25.1737C3.34299 25.1737 2.01339 24.8065 1.26628 24.0594C0.519176 23.2996 0.101303 22.3625 0 21.2229Z" fill="#0A1014"/>
<path d="M16.8414 20.3365L19.9058 21.2608C19.7412 22.0333 19.3993 22.7677 18.9308 23.4135C18.5003 23.9833 17.9304 24.4265 17.2846 24.7178C16.6262 25.009 15.7904 25.161 14.7774 25.161C13.5491 25.161 12.5361 24.9837 11.7636 24.6291C10.9785 24.2746 10.3074 23.6414 9.73759 22.7424C9.16774 21.8433 8.88916 20.691 8.88916 19.2855C8.88916 17.4113 9.38305 15.9677 10.3834 14.9674C11.3838 13.967 12.7893 13.4605 14.6128 13.4605C16.0437 13.4605 17.158 13.7518 17.9811 14.3216C18.7915 14.9041 19.3993 15.7905 19.8045 16.9808L16.7148 17.6646C16.6388 17.3987 16.5249 17.1328 16.3729 16.9048C16.183 16.6389 15.9423 16.4363 15.6511 16.2843C15.3599 16.1324 15.0306 16.0691 14.7014 16.0691C13.9036 16.0691 13.2958 16.3857 12.878 17.0314C12.5614 17.5 12.3968 18.2471 12.3968 19.2601C12.3968 20.5138 12.5867 21.3748 12.9666 21.8433C13.3465 22.3118 13.8783 22.5398 14.5748 22.5398C15.2459 22.5398 15.7524 22.3499 16.0943 21.9826C16.4362 21.5901 16.6895 21.0455 16.8414 20.3365ZM23.9959 13.6505H27.4908V17.6139H31.315V13.6505H34.8353V24.9711H31.315V20.3871H27.4908V24.9711H23.9959V13.6505Z" fill="#0A1014"/>
<path d="M34.354 19.3108C34.354 17.4621 34.8732 16.0185 35.8989 14.9928C36.9246 13.9671 38.3681 13.4479 40.2043 13.4479C42.091 13.4479 43.5346 13.9545 44.5602 14.9675C45.586 15.9805 46.0925 17.3988 46.0925 19.2222C46.0925 20.5518 45.8645 21.6281 45.4214 22.4766C44.9908 23.3123 44.3197 23.9961 43.4966 24.452C42.6482 24.9205 41.5972 25.1611 40.3436 25.1611C39.0646 25.1611 38.0136 24.9585 37.1778 24.5532C36.3168 24.1227 35.6076 23.4516 35.1391 22.6285C34.62 21.7421 34.354 20.6405 34.354 19.3108ZM37.849 19.3235C37.849 20.4632 38.0642 21.2862 38.4821 21.7928C38.9 22.2866 39.4825 22.5399 40.2169 22.5399C40.964 22.5399 41.5465 22.2993 41.9644 21.8054C42.3823 21.3116 42.5848 20.4378 42.5848 19.1715C42.5848 18.1079 42.3696 17.3228 41.939 16.8416C41.5085 16.3478 40.926 16.1071 40.1916 16.1071C39.5458 16.0818 38.9253 16.3604 38.4948 16.8542C38.0642 17.3481 37.849 18.1712 37.849 19.3235ZM49.676 19.3108C49.676 17.4621 50.1952 16.0185 51.2209 14.9928C52.2465 13.9671 53.6904 13.4479 55.5263 13.4479C57.4131 13.4479 58.8695 13.9545 59.8823 14.9675C60.8952 15.9805 61.4146 17.3988 61.4146 19.2222C61.4146 20.5518 61.1863 21.6281 60.7433 22.4766C60.3128 23.3123 59.6416 23.9961 58.8185 24.452C57.97 24.9205 56.9192 25.1611 55.6656 25.1611C54.3866 25.1611 53.3358 24.9585 52.4998 24.5532C51.6388 24.1227 50.9297 23.4516 50.4611 22.6285C49.942 21.7421 49.676 20.6405 49.676 19.3108ZM53.171 19.3235C53.171 20.4632 53.3862 21.2862 53.8043 21.7928C54.2218 22.2866 54.8046 22.5399 55.5388 22.5399C56.2859 22.5399 56.8688 22.2993 57.2863 21.8054C57.7043 21.3116 57.9071 20.4378 57.9071 19.1715C57.9071 18.1079 57.6918 17.3228 57.2613 16.8416C56.8303 16.3478 56.248 16.1071 55.5138 16.1071C54.8675 16.0818 54.2348 16.3604 53.8168 16.8542C53.3862 17.3481 53.171 18.1712 53.171 19.3235Z" fill="#0A1014"/>
<path d="M61.0477 13.6505H64.5422V22.1853H69.9999V24.9711H61.0347V13.6505H61.0477Z" fill="#0A1014"/>
<path d="M57.1958 12.9972C60.7142 10.3456 61.7993 5.8507 59.6192 2.95759C57.4386 0.0644739 52.8189 -0.131318 49.3003 2.52027C45.7817 5.17187 44.6967 9.66677 46.8769 12.5598C49.057 15.453 53.6768 15.6488 57.1958 12.9972Z" fill="#0A1014"/>
<path d="M57.1958 12.9972C60.7142 10.3456 61.7993 5.8507 59.6192 2.95759C57.4386 0.0644739 52.8189 -0.131318 49.3003 2.52027C45.7817 5.17187 44.6967 9.66677 46.8769 12.5598C49.057 15.453 53.6768 15.6488 57.1958 12.9972Z" fill="#7EBC59" stroke="#AFADAD" stroke-miterlimit="10"/>
<path d="M49.6892 6.92658L50.9554 6.04014L52.5132 8.25616C52.7789 8.6107 52.9817 8.99062 53.1335 9.40849C53.2219 9.72503 53.1969 10.0669 53.07 10.3708C52.9057 10.7508 52.6395 11.0673 52.2849 11.2952C51.8672 11.5865 51.5126 11.7511 51.2087 11.8018C50.9175 11.8524 50.6135 11.8018 50.3349 11.6751C50.031 11.5232 49.7651 11.3079 49.5625 11.0293L50.6515 10.0163C50.7402 10.1556 50.8541 10.2822 50.9807 10.3835C51.0694 10.4468 51.1707 10.4848 51.2846 10.4848C51.3733 10.4848 51.4619 10.4468 51.5253 10.3962C51.6519 10.3202 51.7405 10.1682 51.7279 10.0163C51.6899 9.80104 51.6012 9.58574 51.4619 9.42113L49.6892 6.92658ZM53.4881 8.33212L54.6402 7.42041C54.7671 7.57234 54.9314 7.68631 55.1087 7.74964C55.3619 7.8256 55.6281 7.77496 55.8434 7.61035C55.9952 7.50906 56.1221 7.36977 56.1725 7.19247C56.2484 6.96453 56.1221 6.71127 55.8938 6.63531C55.8559 6.62268 55.8179 6.60999 55.7799 6.60999C55.6281 6.5973 55.3619 6.66063 54.9694 6.82524C54.3236 7.09119 53.8172 7.19247 53.4371 7.15447C53.07 7.11651 52.7284 6.92658 52.5257 6.60999C52.3738 6.39474 52.2979 6.14147 52.2849 5.88821C52.2849 5.59695 52.3608 5.30573 52.5257 5.0651C52.7664 4.72325 53.0576 4.43198 53.4122 4.20405C53.944 3.83683 54.4125 3.65955 54.8175 3.65955C55.2226 3.65955 55.6026 3.84949 55.9572 4.24204L54.8175 5.14112C54.5898 4.84985 54.1593 4.78652 53.8676 5.01446L53.8297 5.05247C53.7033 5.12843 53.6144 5.2424 53.564 5.38169C53.526 5.48298 53.5515 5.59695 53.6144 5.6856C53.6654 5.74892 53.7413 5.79957 53.8297 5.79957C53.9311 5.81225 54.1084 5.76156 54.3616 5.64759C54.9948 5.38169 55.4763 5.22972 55.8054 5.17907C56.0841 5.12843 56.3753 5.15375 56.641 5.26772C56.8817 5.36901 57.0845 5.5463 57.2233 5.76156C57.4006 6.01482 57.502 6.31872 57.515 6.63531C57.5274 6.96453 57.4385 7.28112 57.2618 7.5597C57.0335 7.90161 56.7423 8.19283 56.4002 8.42077C55.704 8.90197 55.1342 9.10459 54.6782 9.02857C54.1843 8.95261 53.7792 8.69935 53.4881 8.33212Z" fill="white"/>
</svg>
