<svg width="34" height="22" viewBox="0 0 34 22" fill="none" xmlns="http://www.w3.org/2000/svg">
<path d="M27.8333 6.85001C26.5833 6.41953 25.4801 5.6455 24.6499 4.61668C23.735 3.4704 22.57 2.54857 21.2441 1.92172C19.9182 1.29486 18.4664 0.979589 16.9999 1.00001C15.0272 0.860305 13.0742 1.46875 11.5299 2.70419C9.98563 3.93963 8.96332 5.7114 8.66658 7.66668C9.25104 6.68875 10.1307 5.92146 11.1789 5.47521C12.2271 5.02896 13.3899 4.92677 14.4999 5.18335C15.7477 5.62636 16.8492 6.4049 17.6833 7.43335C18.6032 8.57047 19.7704 9.48277 21.096 10.1008C22.4217 10.7189 23.8708 11.0264 25.3333 11C27.306 11.1397 29.2589 10.5313 30.8032 9.29584C32.3475 8.0604 33.3698 6.28862 33.6666 4.33335C33.0927 5.32297 32.2159 6.10185 31.1655 6.55501C30.1152 7.00818 28.9469 7.1116 27.8333 6.85001ZM6.16658 15.15C7.4165 15.5805 8.51978 16.3545 9.34992 17.3833C10.2648 18.5296 11.4298 19.4515 12.7557 20.0783C14.0817 20.7052 15.5334 21.0204 16.9999 21C18.9726 21.1397 20.9256 20.5313 22.4699 19.2958C24.0142 18.0604 25.0365 16.2886 25.3333 14.3333C24.7488 15.3113 23.8692 16.0786 22.8209 16.5248C21.7727 16.9711 20.6099 17.0733 19.4999 16.8167C18.2521 16.3737 17.1506 15.5951 16.3166 14.5667C15.3942 13.4324 14.2265 12.5221 12.9014 11.9043C11.5764 11.2865 10.1284 10.9773 8.66658 11C6.69386 10.8603 4.74089 11.4688 3.19659 12.7042C1.6523 13.9396 0.629989 15.7114 0.333252 17.6667C0.907097 16.6771 1.78393 15.8982 2.83431 15.445C3.88468 14.9918 5.05293 14.8884 6.16658 15.15Z" fill="#36BFBF"/>
</svg>
